<svg width="869" height="118" viewBox="0 0 869 118" fill="none" xmlns="http://www.w3.org/2000/svg">
<path d="M0.775 46.816C0.775 73.184 18.439 93.28 47.111 93.28C72.327 93.28 88.967 79.456 91.655 57.056H71.175C69.127 68.96 59.655 75.232 47.367 75.232C31.751 75.232 21.383 65.504 21.383 46.816C21.383 28.256 31.751 18.528 47.367 18.528C59.655 18.528 69.127 24.672 71.175 36.576H91.655C88.967 14.304 72.327 0.479996 47.111 0.479996C18.439 0.479996 0.775 20.576 0.775 46.816ZM97.995 59.616C97.995 82.272 114.123 93.28 134.475 93.28C154.699 93.28 170.827 82.272 170.827 59.616C170.827 37.088 154.699 26.08 134.475 26.08C114.123 26.08 97.995 37.088 97.995 59.616ZM118.603 59.616C118.603 48.864 124.747 44.128 134.475 44.128C144.075 44.128 150.347 48.864 150.347 59.616C150.347 70.496 144.075 75.232 134.475 75.232C124.747 75.232 118.603 70.496 118.603 59.616ZM266.461 26.08C253.917 26.08 248.157 33.888 245.597 45.408H241.885C239.965 34.144 234.845 26.08 222.685 26.08C210.141 26.08 204.253 33.888 201.693 45.408H196.445L200.413 33.888V27.36H179.805V92H200.413V69.344C200.413 53.728 202.845 44.128 213.981 44.128C221.533 44.128 223.581 47.456 223.581 59.744V92H244.189V69.344C244.189 53.728 246.621 44.128 257.757 44.128C265.309 44.128 267.357 47.456 267.357 59.744V92H287.965V58.336C287.965 40.928 282.973 26.08 266.461 26.08ZM321.991 20.96C329.543 20.96 334.279 17.376 334.279 10.72C334.279 4.19199 329.543 0.479996 321.991 0.479996C314.439 0.479996 309.959 4.19199 309.959 10.72C309.959 17.376 314.439 20.96 321.991 20.96ZM351.943 92V73.952H333.639V36.832C333.639 29.664 329.671 25.696 322.375 26.08L298.055 27.36V45.408L313.799 44.64V73.952H295.495V92H351.943ZM398.592 44.128C408.448 44.128 411.904 48.608 411.904 60.256V92H432.512V57.056C432.512 37.088 422.528 26.08 406.016 26.08C392.192 26.08 384.128 35.168 381.568 46.688H376.32L380.288 35.168V27.36H359.68V92H380.288V68.064C380.288 49.888 387.584 44.128 398.592 44.128ZM517.334 27.36C511.574 27.36 504.79 28 500.95 32.992C494.166 28 485.206 26.08 475.35 26.08C454.998 26.08 438.87 34.272 438.87 51.296C438.87 72.544 463.958 75.872 487.638 67.552V72.672C475.734 75.488 462.422 77.024 447.702 78.432L449.878 90.08C469.718 86.752 492.886 82.528 492.886 92C492.886 99.04 484.95 99.552 443.094 99.552V117.6C491.094 117.6 513.622 115.424 513.622 96.352C513.622 82.656 499.798 78.816 485.206 79.712C502.87 73.696 514.39 66.016 514.39 53.856C514.39 50.4 513.366 47.456 512.598 46.432C514.39 45.408 516.694 45.408 518.614 45.408H522.966V27.36H517.334ZM476.63 61.024C464.342 61.024 459.478 58.08 459.478 52.576C459.478 47.2 464.342 44 476.63 44C488.918 44 493.782 47.2 493.782 52.576C493.782 58.08 488.918 61.024 476.63 61.024ZM627.971 74.208C627.971 60.768 616.451 57.568 603.907 53.472C593.667 50.144 587.267 48.224 587.267 45.152C587.267 42.592 589.827 41.44 594.691 41.44C601.731 41.44 605.187 44.896 605.187 49.504H625.795C625.795 36.96 616.707 26.08 594.819 26.08C577.027 26.08 566.659 32.736 566.659 44.256C566.659 58.72 581.379 61.92 593.411 65.888C603.779 69.344 607.363 70.24 607.363 73.568C607.363 76.64 603.907 77.92 598.403 77.92C587.651 77.92 584.323 73.568 584.323 68.576H563.715C563.715 83.68 573.955 93.28 597.763 93.28C620.035 93.28 627.971 85.088 627.971 74.208ZM634.37 59.616C634.37 82.272 650.498 93.28 670.85 93.28C691.074 93.28 707.202 82.272 707.202 59.616C707.202 37.088 691.074 26.08 670.85 26.08C650.498 26.08 634.37 37.088 634.37 59.616ZM654.978 59.616C654.978 48.864 661.122 44.128 670.85 44.128C680.45 44.128 686.722 48.864 686.722 59.616C686.722 70.496 680.45 75.232 670.85 75.232C661.122 75.232 654.978 70.496 654.978 59.616ZM713.62 59.616C713.62 82.272 729.748 93.28 750.1 93.28C770.324 93.28 786.452 82.272 786.452 59.616C786.452 37.088 770.324 26.08 750.1 26.08C729.748 26.08 713.62 37.088 713.62 59.616ZM734.228 59.616C734.228 48.864 740.372 44.128 750.1 44.128C759.7 44.128 765.972 48.864 765.972 59.616C765.972 70.496 759.7 75.232 750.1 75.232C740.372 75.232 734.228 70.496 734.228 59.616ZM834.342 44.128C844.198 44.128 847.654 48.608 847.654 60.256V92H868.262V57.056C868.262 37.088 858.278 26.08 841.766 26.08C827.942 26.08 819.878 35.168 817.318 46.688H812.07L816.038 35.168V27.36H795.43V92H816.038V68.064C816.038 49.888 823.334 44.128 834.342 44.128Z" fill="#51FC8F"/>
</svg>
