<svg width="1920" height="1080" viewBox="0 0 1920 1080" fill="none" xmlns="http://www.w3.org/2000/svg">
<g style="mix-blend-mode:screen" opacity="0.2">
<path d="M-16.7097 396.294C65.3929 393.172 127.26 318.248 165.45 253.938C168.436 248.904 171.463 243.792 174.448 238.641C215.127 169.453 257.173 97.9243 333.968 74.4325C407.528 51.9163 484.572 83.4078 559.045 113.885C637.83 146.001 718.938 179.248 794.364 146.859C828.657 132.147 855.029 105.69 880.572 80.1299C898.32 62.3354 916.73 43.9556 937.671 29.4001C1044.65 -44.2752 1175.06 -3.61334 1263.84 33.3024C1272.84 37.2047 1282.67 40.5216 1292.87 44.2287C1319.2 53.5552 1349.01 64.1304 1369.87 81.3786C1381.77 91.2905 1389.9 107.68 1397.74 123.562C1408.52 145.337 1419.63 167.893 1441.07 174.292C1454.67 178.188 1468.81 180.135 1483.03 180.068C1530.92 180.068 1579.19 159.62 1621.86 138.118L1632.93 132.499C1685.3 105.924 1739.58 78.4519 1797.96 82.1592C1841.42 84.8908 1881.23 104.988 1919.71 124.46C1925.39 127.348 1931.11 130.235 1936.83 133.045L1936.83 130.587L1920.83 122.548C1882.1 103.036 1842.04 82.7444 1798.09 79.9738C1739.08 76.0715 1684.64 103.856 1631.98 130.704L1620.91 136.323C1566.17 163.912 1502.11 189.784 1441.94 172.341C1421.45 166.371 1410.55 144.284 1399.97 122.899C1392.05 106.822 1383.84 90.2368 1371.53 79.9738C1350.38 62.4134 1320.36 51.7602 1293.86 42.3557C1283.5 38.6876 1273.71 35.2145 1264.84 31.5073C1212.05 9.49835 1144.59 -13.7593 1075.96 -13.7593C1028.52 -13.7594 980.588 -2.63777 936.385 27.761C915.196 42.3556 896.744 60.8135 878.913 78.4909C853.536 103.895 827.33 130.157 793.452 144.83C718.813 176.829 641.77 145.259 560.04 111.816C485.153 81.2225 407.694 49.3798 333.305 72.3252C255.639 96.0903 213.385 168.01 172.499 237.548C169.472 242.699 166.487 247.811 163.46 252.845C125.601 316.726 64.3563 390.948 -16.6683 394.069L-16.7097 396.294Z" fill="url(#paint0_radial_1_27)" fill-opacity="0.3" style="mix-blend-mode:screen"/>
<path d="M-16.7097 444.955C-9.10907 444.312 -1.46271 444.312 6.138 444.955C9.78693 445.19 13.519 445.463 17.1679 445.541C70.5761 446.985 121.289 416.039 167.606 353.486C179.857 336.711 191.031 319.263 201.07 301.234L207.828 289.137C244.443 223.5 285.95 149.083 358.889 122.86C376.74 116.489 395.615 113.031 414.702 112.636C462.015 111.192 510.074 125.904 555.147 142.02C566.011 145.923 577.083 150.059 587.781 154.078C629.454 169.688 672.537 185.882 714.086 190.019C744.079 193.596 774.539 189.273 802.077 177.531C835.25 163.093 861.166 137.689 886.211 113.104C903.752 95.8951 921.872 77.9836 942.398 64.1305C974.52 41.9834 1012.58 28.7243 1052.28 25.8489C1123.65 20.4247 1196.63 46.4532 1259.61 71.2717C1269.44 75.1741 1280.14 78.569 1291.46 82.2371C1317.13 90.549 1343.66 99.134 1363.48 113.456C1375.3 122.002 1383.68 136.362 1391.76 150.254C1402.88 169.375 1414.4 189.277 1435.3 194.272C1447.63 197.229 1460.31 198.698 1473.04 198.643C1495.22 198.293 1517.23 194.996 1538.43 188.848C1563.41 181.731 1587.76 172.767 1611.24 162.039C1618.91 158.644 1626.67 155.171 1634.42 151.659C1648.44 145.376 1662.87 138.859 1677.38 132.772C1709.48 119.231 1744.18 106.588 1780.38 106.588L1780.67 106.588C1794.1 106.722 1807.46 108.359 1820.48 111.465C1847.56 117.67 1874.39 129.533 1900.22 141.006C1912.2 146.313 1924.35 151.659 1936.71 156.615L1936.71 154.235C1924.73 149.435 1912.91 144.245 1901.22 139.055C1875.22 127.348 1848.3 115.641 1821.02 109.397C1807.82 106.277 1794.28 104.666 1780.67 104.597L1780.22 104.597C1743.6 104.597 1708.61 117.163 1676.26 130.743C1661.71 136.83 1647.24 143.347 1633.22 149.669C1625.47 153.181 1617.71 156.654 1610.04 160.049C1586.66 170.709 1562.43 179.621 1537.56 186.702C1498.21 197.511 1464.87 199.267 1435.68 192.126C1415.77 187.287 1404.99 168.712 1393.55 149.201C1385.25 135.113 1376.96 120.519 1364.52 111.738C1344.41 97.2219 1317.66 88.5589 1291.83 80.208C1280.55 76.5789 1269.9 73.1058 1260.15 69.2816C1202.8 46.6483 1136.96 22.9614 1071.4 22.9614C1064.93 22.9614 1058.42 23.1955 1051.91 23.7027C1011.8 26.6281 973.355 40.035 940.905 62.4134C920.172 76.5007 901.968 94.3733 884.346 111.621C859.466 136.05 833.716 161.298 800.957 175.58C773.727 187.273 743.574 191.597 713.879 188.067C672.662 184.165 629.745 167.893 588.196 152.283C577.498 148.381 566.426 144.128 555.562 140.225C510.322 124.031 461.849 109.28 414.204 110.685C394.864 111.114 375.74 114.623 357.645 121.065C283.919 147.601 242.162 222.525 205.341 288.356C203.101 292.259 200.862 296.434 198.581 300.453C188.638 318.401 177.561 335.771 165.409 352.471C119.796 414.4 69.6225 444.955 16.9192 443.629C13.3531 443.629 9.62103 443.277 6.01349 443.043C-1.63617 442.341 -9.336 442.263 -17.0001 442.809L-16.7097 444.955Z" fill="url(#paint1_radial_1_27)" fill-opacity="0.3" style="mix-blend-mode:screen"/>
<path d="M-16.7094 559.839C-16.3778 558.98 -16.0875 558.161 -15.7972 557.303C-14.8435 554.259 -13.9315 551.02 -13.0192 547.742C-7.9604 529.752 -2.19648 509.343 19.6146 499.783C30.7689 494.905 43.2503 495.139 55.317 495.373C59.0074 495.373 62.8636 495.373 66.5126 495.373C116.603 494.241 163.543 462.243 205.963 400.274C217.173 383.652 227.416 366.47 236.647 348.803L241.043 340.452C275.542 274.971 314.645 200.75 383.769 171.6C400.281 164.748 417.848 160.414 435.808 158.761C473.377 155.093 514.594 160.985 569.453 177.921C583.842 182.331 598.479 187.443 612.702 192.321C649.607 205.12 687.714 218.31 724.66 221.432C753.926 224.419 783.501 219.79 810.163 208.047C842.133 193.882 867.552 169.492 892.141 145.923C909.432 129.299 927.387 112.129 947.457 98.6268C978.746 77.1603 1015.88 64.5185 1054.52 62.1792C1119.04 58.277 1183.65 82.3152 1246.09 105.495L1255.34 108.929C1266.29 112.831 1278.19 116.421 1290.79 120.05C1314.18 126.801 1338.4 133.787 1356.89 145.142C1368.58 152.283 1377.21 164.654 1385.54 176.556C1397.03 193.023 1408.93 210.076 1429.29 214.018C1440.21 216.112 1451.32 217.132 1462.46 217.061C1485.1 216.665 1507.59 213.637 1529.43 208.047C1553.56 202.093 1577.25 194.65 1600.34 185.765C1621.36 177.96 1642.3 169.297 1664.49 160.244L1665.19 159.971C1698.61 146.313 1730.17 133.435 1763.67 131.328C1776.15 130.595 1788.68 131.249 1800.99 133.279C1827.94 137.533 1854.03 147.328 1881.6 157.708C1899.56 164.459 1917.84 171.327 1936.71 176.712L1936.71 174.409C1918.17 169.102 1900.18 162.351 1882.47 155.678C1854.73 145.259 1828.57 135.425 1801.37 131.133C1788.85 129.062 1776.11 128.394 1763.42 129.143C1729.46 131.289 1697.74 144.245 1664.15 157.981L1663.45 158.254C1641.27 167.307 1620.32 175.853 1599.38 183.736C1576.42 192.565 1552.88 199.982 1528.89 205.94C1489.04 215.462 1457.53 217.374 1429.79 211.91C1410.38 208.008 1399.27 192.399 1387.49 175.385C1379.2 163.288 1370.29 150.761 1358.18 143.347C1339.39 131.835 1315.05 124.811 1291.5 118.021C1279.06 114.392 1267.08 110.958 1256.21 106.939L1246.97 103.505C1188.91 81.925 1128.87 59.6429 1068.66 59.6429C1063.98 59.6429 1059.25 59.6427 1054.52 60.0721C1015.46 62.4217 977.918 75.2001 946.296 96.9098C926.019 110.49 908.023 127.777 890.648 144.44C866.225 167.853 840.889 192.087 809.334 206.096C783.013 217.659 753.827 222.208 724.95 219.247C688.419 216.125 650.312 202.974 613.697 190.253C599.475 185.336 584.671 180.263 570.324 175.814C515.174 158.8 473.667 152.869 435.767 156.576C417.559 158.218 399.75 162.606 383.022 169.57C313.111 199.033 273.842 273.606 239.135 339.437L234.74 347.788C225.494 365.455 215.237 382.638 204.014 399.26C162.009 460.565 115.733 492.251 66.4711 493.344C62.8222 493.344 59.0488 493.344 55.3583 493.344C42.9185 493.11 30.2713 492.876 18.6609 497.988C-4.18684 507.978 -10.0334 528.894 -15.2581 547.313C-15.7143 549.069 -16.2119 550.747 -16.7094 552.425L-16.7094 559.839Z" fill="url(#paint2_radial_1_27)" fill-opacity="0.3" style="mix-blend-mode:screen"/>
<path d="M-16.7097 644.207C5.55754 633.788 22.6829 618.608 31.3908 600.072C32.5518 597.613 33.6714 594.999 34.8324 592.267C41.3427 577.087 48.7236 559.956 70.7005 550.747C81.3987 546.298 92.9678 545.947 104.205 545.596C108.061 545.596 112.083 545.322 115.898 545.049C163.418 541.342 205.423 509.265 244.443 446.946C253.856 431.883 262.978 415.298 272.308 396.216L274.216 392.314C306.6 326.716 343.298 252.377 408.772 220.105C423.951 212.682 440.218 207.422 457.039 204.496C494.358 197.901 534.456 200.594 583.842 213.393C600.843 217.764 618.259 223.305 635.052 228.69C668.225 239.226 702.144 250.153 735.192 252.494C763.67 254.978 792.331 250.15 818.124 238.524C848.975 224.632 873.855 201.296 897.946 178.741C914.725 162.12 932.95 146.847 952.433 133.084C982.903 112.421 1019.08 100.507 1056.6 98.7829C1111.58 96.3635 1166.23 116.226 1219.1 135.386C1229.59 139.289 1240.46 143.191 1251.07 146.781C1263.51 151.035 1277.28 154.586 1290.75 157.903C1311.69 163.132 1333.34 168.556 1350.34 177.102C1361.95 182.917 1370.82 193.18 1379.37 203.169C1391.23 216.944 1403.5 231.188 1423.28 234.037C1432.2 235.288 1441.21 235.901 1450.23 235.871C1473.89 235.426 1497.43 232.64 1520.47 227.559C1543.8 222.757 1566.84 216.83 1589.52 209.803C1611.53 203.013 1632.31 195.716 1653.04 187.482C1658.93 185.141 1664.76 182.773 1670.54 180.38C1696.54 169.727 1721.05 159.659 1746.59 156.108C1758.19 154.533 1769.95 154.219 1781.63 155.171C1808.91 157.317 1836.07 165.551 1864.81 174.37C1888.33 182.154 1912.4 188.399 1936.83 193.062L1936.83 190.838C1912.63 186.217 1888.8 180.023 1865.51 172.302C1836.49 163.444 1809.37 155.054 1781.83 152.791C1769.98 151.799 1758.04 152.113 1746.26 153.727C1720.42 157.317 1695.75 167.424 1669.63 178.156C1663.86 180.497 1658.06 182.916 1652.13 185.258C1631.4 193.453 1610.66 200.867 1588.81 207.501C1566.2 214.502 1543.23 220.402 1519.98 225.178C1490.95 231.071 1456.66 236.495 1423.65 231.773C1404.78 229.042 1393.34 215.735 1381.19 201.686C1372.44 191.54 1363.44 181.082 1351.42 175.073C1334.17 166.41 1312.4 160.947 1291.38 155.561C1277.94 152.205 1264.05 148.732 1251.86 144.518C1241.24 140.85 1230.42 136.713 1219.93 133.123C1169.8 114.938 1118.05 96.1684 1065.76 96.1684C1062.65 96.1684 1059.58 96.1684 1056.47 96.3636C1018.45 98.2099 981.815 110.411 951.023 131.484C931.421 145.329 913.085 160.693 896.205 177.414C872.279 199.852 847.524 223.032 817.046 236.729C791.611 248.186 763.357 252.96 735.275 250.543C702.517 248.202 668.557 237.314 635.757 226.817C618.922 221.432 601.506 215.852 584.422 211.481C534.663 198.76 494.068 195.872 456.583 202.545C439.542 205.44 423.052 210.7 407.653 218.154C341.307 250.777 304.61 325.467 272.101 391.377L270.193 395.279C260.863 414.244 251.782 430.751 242.411 445.775C203.889 507.431 162.465 539.157 115.774 542.786C111.959 543.098 108.186 543.215 104.164 543.332C92.7189 543.684 80.9011 544.074 69.8296 548.678C46.982 558.239 39.3936 575.995 32.7176 591.37C31.5981 594.023 30.4786 596.599 29.3176 599.174C21.0243 616.657 4.64518 631.251 -16.6683 641.475L-16.7097 644.207Z" fill="url(#paint3_radial_1_27)" fill-opacity="0.3" style="mix-blend-mode:screen"/>
<path d="M-16.7097 684.4C26.0417 681.63 61.7438 666.528 78.6619 642.841C80.1132 640.812 81.523 638.665 83.0158 636.441C90.9772 624.305 100.017 610.569 121.869 601.906C131.809 598.459 142.26 596.497 152.844 596.091C156.991 595.74 161.138 595.35 165.284 594.804C209.363 588.638 247.76 555.781 282.716 493.695C291.009 479.023 299.302 462.711 307.844 443.824C337.783 378.499 371.702 304.434 433.611 268.923C447.525 261.072 462.506 255.033 478.145 250.972C514.511 241.217 553.737 240.787 598.106 249.685C617.014 253.587 636.462 259.206 655.205 264.748C684.977 273.567 715.745 282.659 745.6 284.259C773.292 286.171 801.026 281.121 825.961 269.625C855.568 256.045 879.867 233.763 903.544 212.223C920.133 196.179 938.093 181.444 957.243 168.166C986.869 148.063 1022.17 136.682 1058.67 135.464C1106.73 134.138 1154.04 151.542 1199.9 168.322C1215.24 173.941 1231.13 179.755 1246.8 184.75C1261.56 189.136 1276.57 192.77 1291.75 195.638C1309.47 198.741 1326.88 203.258 1343.79 209.14C1355.27 213.589 1364.52 221.861 1373.27 229.861C1385.71 240.944 1398.15 252.416 1417.35 254.133C1423.53 254.68 1429.79 254.914 1436.01 254.914C1461.38 254.288 1486.64 251.611 1511.52 246.914C1538.1 242.504 1559.45 238.29 1578.69 233.724C1599.88 228.858 1620.67 222.559 1640.89 214.876C1651.67 210.74 1662.04 206.213 1672.07 201.843C1691.73 193.219 1710.31 185.102 1729.5 180.77C1740.22 178.342 1751.2 177.033 1762.22 176.868C1790.34 176.361 1819.28 183.268 1849.92 190.565C1877.75 197.199 1906.48 204.028 1937 205.901L1937 203.716C1906.9 201.843 1878.28 195.053 1850.63 188.458C1819.82 181.121 1790.71 174.253 1762.3 174.683C1751.13 174.832 1740 176.14 1729.13 178.585C1709.73 182.956 1691.02 191.15 1671.08 199.774C1661.04 204.145 1650.72 208.672 1639.98 212.808C1619.86 220.405 1599.18 226.639 1578.11 231.461C1558.96 236.027 1537.64 240.202 1511.1 244.612C1478.93 249.919 1447.58 254.446 1417.56 251.792C1399.19 250.153 1387.37 239.461 1374.89 228.144C1365.89 219.988 1356.6 211.559 1344.7 206.955C1327.66 201.03 1310.11 196.474 1292.25 193.336C1277.14 190.517 1262.22 186.908 1247.55 182.526C1231.91 177.531 1216.07 171.717 1200.73 166.137C1156.32 149.864 1110.46 133.045 1063.64 133.045L1058.59 133.045C1021.64 134.285 985.912 145.8 955.916 166.137C936.709 179.51 918.682 194.322 902.01 210.428C878.54 231.851 854.324 253.977 825.008 267.44C800.449 278.774 773.129 283.758 745.849 281.879C716.243 280.162 685.641 271.108 655.992 262.367C637.167 256.787 617.678 251.05 598.645 247.226C553.903 238.251 514.303 238.68 477.564 248.592C461.723 252.747 446.558 258.917 432.491 266.933C369.96 302.756 335.875 377.173 305.813 442.809C297.229 461.618 289.019 477.93 280.933 492.524C246.35 553.751 208.492 586.414 165.201 592.462C161.055 593.048 156.908 593.399 152.762 593.75C141.939 594.205 131.255 596.218 121.081 599.721C98.524 608.657 88.9041 623.134 81.1501 635.114C79.6987 637.339 78.2887 639.485 77.0033 641.475C60.4169 664.577 25.5855 679.327 -16.3781 682.059L-16.7097 684.4Z" fill="url(#paint4_radial_1_27)" fill-opacity="0.3" style="mix-blend-mode:screen"/>
<path d="M-16.7097 706.253C-10.8215 707.268 -4.72604 708.126 1.6182 708.907C54.7361 715.15 102.256 706.253 125.684 685.688C127.716 683.854 129.831 681.786 131.904 679.874C143.177 668.051 157.197 658.837 172.873 652.948C181.892 649.891 191.256 647.822 200.779 646.782C205.631 646.08 210.192 645.416 214.712 644.441C255.887 635.817 289.682 602.764 321.113 540.367C328.287 526.123 335.585 510.085 343.422 491.276C367.348 434.38 399.857 356.842 458.532 317.546C471.19 309.12 484.874 302.151 499.293 296.785C535.16 283.251 574.276 279.202 612.412 285.078C633.241 288.525 653.81 293.244 673.989 299.205C701.024 306.58 728.973 314.19 756.133 315.321C783.01 316.688 809.799 311.414 833.84 300.024C862.286 286.756 886.087 265.528 909.142 245.041C925.598 229.592 943.317 215.383 962.136 202.545C993.691 182.253 1026.86 171.912 1060.74 171.717C1103.58 171.327 1145.21 187.131 1185.51 202.35C1204.13 209.374 1223.33 216.632 1242.53 222.291C1259.49 226.827 1276.77 230.256 1294.24 232.554C1308.74 234.487 1323.11 237.21 1337.28 240.709C1348.08 244.285 1358.17 249.563 1367.09 256.319C1379.53 264.709 1392.76 273.411 1411.38 273.957C1413.78 273.957 1416.23 273.957 1418.63 273.957C1441.82 273.425 1464.94 271.417 1487.84 267.947L1502.52 266.074L1518.44 264.123C1535.61 262.016 1551.62 260.026 1567.83 257.411C1588.63 254.318 1609.04 249.178 1628.7 242.075C1642.84 236.585 1656.68 230.424 1670.17 223.617C1683.81 216.539 1697.97 210.384 1712.54 205.199C1722.38 201.957 1732.56 199.694 1742.9 198.448C1772.38 195.014 1804.18 200.243 1837.86 206.135C1862.4 210.806 1887.23 214.051 1912.2 215.852L1936.83 217.062L1936.83 214.876L1912.33 213.667C1887.46 211.928 1862.72 208.748 1838.27 204.145C1804.43 198.213 1772.38 192.789 1742.44 196.34C1731.95 197.589 1721.62 199.878 1711.63 203.169C1696.88 208.411 1682.54 214.631 1668.72 221.783C1655.38 228.568 1641.67 234.703 1627.66 240.163C1608.13 247.209 1587.87 252.31 1567.21 255.382C1551.24 257.997 1535.07 259.987 1517.95 262.055L1502.02 264.045L1487.3 265.918C1462.13 269.157 1436.13 272.552 1411.25 271.772C1393.34 271.264 1381.15 263.148 1368.25 254.524C1359.09 247.742 1348.77 242.465 1337.73 238.914C1323.47 235.374 1309.01 232.625 1294.4 230.681C1277.05 228.379 1259.89 224.976 1243.03 220.495C1223.91 214.876 1204.75 207.618 1186.18 200.594C1146.08 185.453 1104.65 169.805 1061.78 169.805L1060.37 169.805C1026.03 169.805 992.447 180.497 960.518 201.023C941.583 213.917 923.753 228.192 907.193 243.714C884.304 264.123 860.586 285.195 832.555 298.346C808.939 309.506 782.647 314.697 756.257 313.409C729.346 312.277 701.522 304.668 674.611 297.332C654.352 291.349 633.699 286.617 612.785 283.166C574.244 277.154 534.688 281.203 498.422 294.873C483.822 300.285 469.97 307.334 457.163 315.868C398.157 355.515 365.275 433.561 341.266 490.573C333.429 509.304 326.172 525.343 318.999 539.508C287.941 601.242 254.602 633.944 214.173 642.412C209.736 643.348 205.216 644.012 200.447 644.675C190.741 645.758 181.197 647.879 172.002 650.997C156.046 656.977 141.762 666.322 130.246 678.313C128.131 680.342 126.099 682.215 124.109 684.049C101.178 704.185 54.3628 712.848 1.90836 706.682C-4.51888 705.941 -10.5312 705.043 -16.7097 704.029L-16.7097 706.253Z" fill="url(#paint5_radial_1_27)" fill-opacity="0.3" style="mix-blend-mode:screen"/>
<path d="M-16.7097 717.687L-6.84066 720.77C12.2951 726.259 31.7998 730.535 51.5431 733.569C103.541 742.115 147.661 740.242 172.582 728.457C176.729 726.623 180.461 724.555 184.649 722.097C197.088 714.91 210.222 708.847 223.876 703.99C231.681 701.411 239.678 699.376 247.802 697.902C253.441 696.732 258.79 695.639 264.015 694C313.525 679.679 342.178 626.022 359.387 586.921C365.482 573.107 371.826 557.732 378.958 538.65C403.838 473.325 432.574 406.245 483.37 366.051C494.804 357.044 507.216 349.196 520.399 342.637C552.733 325.535 589.819 318.065 626.759 321.214C648.693 323.639 670.364 327.843 691.529 333.779C716.408 339.984 741.786 346.384 766.665 347.008C792.725 347.719 818.554 342.229 841.76 331.048C868.962 318.092 892.183 297.956 914.657 278.523C930.986 263.635 948.493 249.938 967.029 237.549C998.17 218.037 1030.31 208.047 1062.82 208.554C1101.38 208.984 1138.49 223.734 1174.44 237.939C1195.21 246.645 1216.52 254.165 1238.26 260.455C1257.94 265.073 1278.02 268.038 1298.26 269.313C1309.83 270.367 1320.77 271.381 1330.77 272.942C1341.31 274.959 1351.5 278.361 1361.04 283.049C1373.48 288.473 1386.17 294.093 1403 294.093L1405.45 294.093C1422.82 293.547 1440.86 291.439 1458.28 289.41C1469.84 288.083 1481.79 286.678 1493.56 285.742C1504.34 284.844 1515.04 284.259 1525.45 283.674C1535.86 283.088 1546.64 282.503 1556.96 281.605C1577.3 280.274 1597.35 276.335 1616.55 269.899C1633.41 263.368 1649.62 255.442 1664.98 246.212C1675.35 240.319 1685.18 234.778 1695.3 230.251C1704.28 226.193 1713.67 222.978 1723.33 220.652C1755.25 212.847 1791.54 216.749 1829.98 220.925C1848.39 222.915 1867.3 224.827 1886.91 225.842C1903.7 226.583 1920.41 227.637 1936.67 228.807L1936.67 226.622C1920.29 225.49 1903.5 224.437 1886.91 223.656C1867.54 222.798 1848.55 220.73 1830.14 218.779C1791.5 214.603 1755.01 210.701 1722.66 218.505C1712.87 220.897 1703.34 224.178 1694.22 228.3C1683.97 232.866 1674.15 238.446 1663.7 244.339C1648.44 253.452 1632.36 261.287 1615.64 267.752C1596.65 274.19 1576.81 278.129 1556.67 279.459C1546.39 280.357 1535.94 280.942 1525.2 281.527C1514.46 282.113 1504.1 282.698 1493.27 283.596C1481.46 284.571 1469.47 285.937 1457.94 287.303C1440.53 289.293 1422.57 291.4 1405.28 291.947C1387.99 292.493 1375.22 286.991 1361.91 281.137C1352.2 276.356 1341.81 272.9 1331.06 270.874C1320.98 269.274 1310.03 268.299 1298.42 267.206C1278.31 265.946 1258.36 263.008 1238.8 258.426C1217.16 252.095 1195.94 244.536 1175.27 235.792C1139.15 221.471 1101.79 206.681 1062.77 206.252L1060.62 206.252C1028.48 206.252 996.552 216.125 965.702 235.597C947.087 248.056 929.497 261.818 913.081 276.767C890.69 296.278 867.469 316.18 840.64 328.979C817.804 340.045 792.336 345.419 766.665 344.588C742.076 343.964 716.657 337.603 692.026 331.438C670.725 325.468 648.916 321.238 626.842 318.794C589.483 315.711 552.009 323.357 519.362 340.725C506.089 347.376 493.583 355.301 482.043 364.373C430.791 404.918 402.013 472.311 376.927 537.908C369.711 556.99 363.492 572.287 357.438 586.062C340.395 624.773 312.074 677.884 263.517 691.932C258.375 693.415 253.068 694.468 247.47 695.834C239.233 697.339 231.125 699.413 223.212 702.039C209.444 706.94 196.199 713.055 183.654 720.301C179.507 722.604 175.568 724.789 171.712 726.584C147.247 738.291 103.625 739.969 52.1238 731.501C32.4934 728.466 13.0998 724.203 -5.92843 718.741C-9.43917 717.674 -12.964 716.581 -16.5024 715.463L-16.7097 717.687Z" fill="url(#paint6_radial_1_27)" fill-opacity="0.3" style="mix-blend-mode:screen"/>
<path d="M-16.7097 731.267C0.407992 734.045 17.3192 737.851 33.9202 742.662L45.1161 745.627C60.2097 749.53 75.8423 752.847 90.9359 756.046L101.593 758.271C158.816 770.524 196.301 774.621 219.605 771.187C232.418 769.314 244.484 765.256 264.512 758.544L275.045 755.032C281.182 753.003 287.484 751.403 293.165 749.842C300.07 748.182 306.868 746.149 313.525 743.754C358.018 726.857 381.944 676.049 397.867 633.67C403.962 617.437 409.768 600.579 414.453 586.219C436.347 522.338 462.844 457.443 508.208 414.752C518.443 405.176 529.543 396.454 541.381 388.684C574.885 366.519 606.441 356.412 640.899 356.803C662.876 357.076 685.806 362.344 707.991 367.417C730.175 372.49 754.101 377.992 776.949 378.187C802.208 378.412 827.127 372.684 849.431 361.524C875.389 348.959 897.988 329.916 919.923 311.536C936.266 297.194 953.701 283.996 972.087 272.045C1003.23 252.533 1033.66 243.87 1065.01 244.729C1100.13 245.86 1133.51 259.87 1165.82 273.45C1187.88 282.698 1210.68 292.298 1234.15 297.917C1256.96 303.341 1282.17 303.692 1304.64 304.005C1311.65 304.005 1318.29 304.2 1324.67 304.434C1335.05 305.032 1345.33 306.641 1355.36 309.234C1369.78 313.224 1384.86 314.705 1399.85 313.604C1409.84 312.629 1420.09 311.302 1430.04 310.053C1448.24 307.395 1466.58 305.611 1484.98 304.707C1497.75 304.2 1510.44 304.473 1522.71 304.707C1530.55 304.707 1538.64 305.058 1546.47 305.019C1566.2 305.461 1585.85 302.634 1604.53 296.668C1624.89 289.644 1641.51 278.445 1657.6 267.635C1664.73 262.875 1671.45 258.348 1678.34 254.25C1686.49 249.376 1695.07 245.185 1704 241.724C1739.41 228.261 1782.79 230.72 1828.4 233.334C1839.26 233.958 1850.46 234.583 1861.57 235.012C1887.08 235.988 1912.2 238.368 1936.83 241.139L1936.83 239.266C1912.25 236.495 1887.08 234.115 1861.66 233.139C1850.46 232.71 1839.26 232.085 1828.48 231.461C1810.28 230.447 1792.45 229.432 1775.32 229.432C1749.24 229.432 1724.78 231.773 1703.09 240.007C1694.01 243.483 1685.29 247.714 1677.01 252.65C1670.04 256.787 1663.28 261.314 1656.28 266.113C1640.31 276.845 1623.81 287.927 1603.74 294.873C1585.24 300.774 1565.79 303.561 1546.27 303.107C1538.43 303.107 1530.72 303.107 1522.55 302.756C1510.11 302.522 1497.67 302.21 1484.65 302.756C1466.07 303.419 1447.33 305.8 1429.5 308.102C1419.59 309.39 1409.35 310.717 1399.39 311.692C1384.67 312.787 1369.85 311.319 1355.69 307.361C1345.51 304.751 1335.08 303.116 1324.55 302.483C1318.16 302.249 1311.49 302.132 1304.48 302.054C1282.34 301.741 1257.25 301.429 1234.73 296.044C1211.43 290.464 1188.75 280.903 1166.77 271.694C1134.26 258.036 1100.67 243.909 1065.1 242.778C1033.21 241.724 1002.4 250.582 970.802 270.094C952.45 282.127 935.045 295.39 918.721 309.78C896.951 328.082 874.435 347.008 848.726 359.495C826.712 370.49 802.118 376.112 777.197 375.846C754.599 375.846 731.295 370.305 708.737 365.154C686.18 360.003 663.373 354.734 641.148 354.461C606.233 354.071 574.222 364.295 540.302 386.772C528.335 394.614 517.099 403.4 506.715 413.035C461.102 455.96 434.398 521.245 412.421 585.399C407.57 599.721 401.765 616.617 395.835 632.812C380.119 674.723 356.442 725.023 312.903 741.608C306.318 743.947 299.605 745.953 292.792 747.618C286.862 749.178 280.725 750.778 274.506 752.847L263.973 756.359C244.111 762.993 232.086 767.012 219.522 768.885C196.467 772.28 159.272 768.183 102.381 756.007L91.6822 753.705C76.63 750.544 61.0389 747.227 46.0696 743.325L34.9153 740.359C18.1112 735.512 0.991611 731.693 -16.3365 728.926L-16.7097 731.267Z" fill="url(#paint7_radial_1_27)" fill-opacity="0.3" style="mix-blend-mode:screen"/>
<path d="M-16.7094 763.656C-11.4845 762.182 -6.1268 761.163 -0.703826 760.612C32.469 757.217 63.1952 763.032 97.0314 770.407L105.74 772.28C120.916 775.558 136.631 778.914 151.601 782.972C168.187 787.421 183.529 792.065 198.457 796.552C225.41 804.669 248.673 811.654 266.544 813.839C284.416 816.025 300.837 813.839 326.089 806.035L334.383 803.576C344.171 800.918 353.712 797.511 362.911 793.391C403.05 773.88 423.161 722.721 436.223 680.225C439.913 668.245 443.521 656.109 447.129 644.012L450.239 633.553C466.452 579.468 490.585 511.255 533.17 463.218C542.293 453.013 552.158 443.416 562.694 434.497C584.091 416.196 613.946 394.889 655.329 392.431C677.679 391.104 701.19 396.021 723.955 400.743C744.688 405.074 766.375 409.601 787.564 409.406C812.01 409.102 836.003 403.152 857.434 392.079C882.024 379.865 904 361.993 925.272 344.706C941.448 330.886 958.629 318.147 976.69 306.58C1007.38 287.927 1036.86 279.654 1066.8 281.332C1099.01 283.049 1128.99 296.629 1158.44 309.741C1181.28 320.004 1204.84 330.579 1229.63 335.808C1256.79 341.506 1285.82 339.008 1311.44 336.862L1317.66 336.316C1328.05 335.552 1338.48 335.382 1348.89 335.808C1363.77 336.584 1378.7 335.851 1393.42 333.623L1401.97 332.14C1425.85 328.043 1450.56 323.789 1475.48 324.102C1489.04 324.102 1502.48 325.701 1515.46 327.067C1521.93 327.77 1528.6 328.472 1535.11 329.018C1554.26 331.278 1573.69 329.614 1592.09 324.14C1614.4 316.765 1631.27 302.99 1647.61 289.644C1652.17 285.742 1656.52 282.347 1661 278.913C1668.34 273.197 1676.14 268.043 1684.35 263.499C1724.98 241.412 1781.5 243.207 1836.11 244.885C1869.89 246.434 1903.5 250.216 1936.71 256.202L1936.71 253.977C1903.57 248.06 1870.02 244.344 1836.32 242.856C1821.56 242.387 1806.67 241.919 1791.99 241.919C1751.98 241.919 1713.46 245.353 1683.31 261.743C1674.99 266.347 1667.07 271.567 1659.63 277.352C1655.16 280.825 1650.59 284.532 1646.2 288.122C1630.07 301.312 1613.36 314.97 1591.42 322.228C1573.33 327.565 1554.22 329.175 1535.4 326.95C1528.98 326.443 1522.3 325.701 1515.83 325.038C1502.5 323.395 1489.09 322.392 1475.65 322.033C1450.52 321.721 1425.89 325.936 1401.67 330.111L1393.13 331.594C1378.56 333.794 1363.79 334.514 1349.05 333.74C1338.56 333.329 1328.05 333.511 1317.58 334.287L1311.36 334.794C1285.9 336.94 1257.08 339.398 1230.25 333.779C1205.75 328.628 1182.28 318.17 1159.76 307.907C1130.36 294.678 1099.93 281.02 1067.25 279.264C1036.82 277.547 1006.88 285.937 975.736 304.863C957.604 316.496 940.341 329.287 924.07 343.145C902.922 360.393 881.07 378.265 856.688 390.284C835.58 401.167 811.962 407.022 787.896 407.337C767.163 407.611 745.559 403.045 724.785 398.713C701.895 393.953 678.218 389.036 655.536 390.401C613.407 392.86 583.137 414.479 561.45 433.014C550.845 441.999 540.911 451.66 531.719 461.93C488.76 510.28 464.503 578.804 448.207 633.085L445.097 643.543C441.489 655.64 437.882 667.777 434.233 679.718C421.295 721.706 401.392 772.397 362.082 791.479C352.862 795.564 343.308 798.944 333.512 801.586L325.426 804.045C300.546 811.849 284.624 813.8 266.876 811.849C249.129 809.898 226.032 802.757 199.204 794.679C184.276 790.153 168.809 785.509 152.264 781.06C137.254 777.158 121.496 773.607 106.279 770.329L97.5706 768.456C63.5685 761.041 32.6763 755.188 -0.911102 758.622C-6.24069 759.204 -11.5107 760.195 -16.6681 761.588L-16.7094 763.656Z" fill="url(#paint8_radial_1_27)" fill-opacity="0.3" style="mix-blend-mode:screen"/>
<path d="M-16.7094 821.254C-12.563 818.171 -8.62375 815.244 -4.26975 812.513C12.8858 801.377 32.538 794.113 53.1606 791.284C85.1339 787.774 117.498 789.092 149.03 795.186C166.888 798.019 184.483 802.168 201.65 807.596C225.303 815.909 248.305 825.78 270.484 837.136C284.476 844.296 298.888 850.706 313.65 856.335C334.922 863.75 353.333 864.14 377.258 857.116C389.56 853.929 401.346 849.191 412.297 843.029C447.958 821.332 463.798 772.163 474.496 726.974C477.772 713.082 481.67 696.927 485.692 681.122C504.352 608.384 528.029 553.01 558.05 511.919C566.069 501.101 574.677 490.68 583.842 480.701C604.575 457.794 631.072 433.678 669.676 428.449C692.234 425.405 716.118 429.854 739.215 434.185C758.579 437.814 778.566 441.561 798.096 441.014C821.779 440.055 844.871 433.766 865.437 422.673C888.7 410.967 909.93 394.148 930.497 377.992C946.693 364.677 963.785 352.359 981.666 341.115C1011.94 323.165 1040.46 315.555 1068.99 317.702C1098.68 320.004 1126.22 333.311 1152.8 346.149C1175.93 357.31 1199.86 368.861 1225.49 373.465C1254.89 378.773 1285.2 373.466 1311.32 368.002C1322.31 365.7 1332.68 364.1 1342.71 362.227C1356.77 359.847 1371.28 357.388 1387.58 353.408C1411.25 347.593 1438.83 341.701 1466.61 343.34C1480.21 344.582 1493.71 346.708 1507 349.701C1512.68 350.832 1518.53 352.003 1524.21 352.978C1540.79 355.788 1560.2 357.817 1579.94 351.652C1603.7 344.159 1620.12 327.536 1636 311.497L1643.88 303.692C1650.4 297.105 1657.43 290.975 1664.9 285.352C1704.54 256.163 1763.71 253.704 1810.82 254.875C1853.86 255.889 1895.91 264.63 1936.71 273.567L1936.71 271.343C1895.95 262.406 1853.78 253.704 1810.86 252.69C1805.43 252.69 1799.79 252.455 1794.07 252.455C1749.95 252.455 1699.07 257.411 1663.49 283.674C1655.94 289.372 1648.84 295.566 1642.22 302.21C1639.56 304.824 1636.95 307.478 1634.3 310.014C1618.62 325.858 1602.41 342.247 1579.19 349.584C1559.95 355.632 1540.83 353.486 1524.62 350.832C1518.98 349.857 1513.14 348.686 1507.5 347.593C1494.05 344.626 1480.4 342.553 1466.65 341.389C1438.54 339.594 1410.71 345.681 1386.87 351.535C1370.66 355.437 1356.19 357.973 1342.17 360.354C1332.09 362.032 1321.73 363.788 1310.7 366.129C1284.78 371.475 1254.76 376.782 1225.78 371.592C1200.48 367.027 1176.72 355.554 1153.75 344.276C1126.92 331.321 1099.22 317.936 1069.03 315.634C1040.01 313.37 1010.98 321.136 980.339 339.32C962.347 350.596 945.157 362.967 928.88 376.353C908.437 392.47 887.414 409.093 864.235 420.8C843.946 431.62 821.193 437.695 797.889 438.517C778.649 439.063 758.745 435.317 739.547 431.727C716.284 427.395 692.192 422.869 669.054 425.99C629.454 431.337 601.631 457.209 581.976 478.945C572.775 489.038 564.138 499.575 556.101 510.514C525.914 551.878 502.195 607.447 483.37 680.459C479.223 696.263 475.45 712.419 472.132 726.35C461.476 771.109 445.843 819.771 410.846 841.038C400.06 847.121 388.438 851.782 376.305 854.892C352.918 861.643 334.839 861.408 314.106 854.189C299.466 848.648 285.178 842.315 271.313 835.224C249.04 823.835 225.941 813.938 202.189 805.606C184.91 800.101 167.188 795.912 149.196 793.079C117.428 786.965 84.829 785.648 52.6215 789.177C31.6404 792.065 11.6483 799.462 -5.80393 810.796C-9.61887 813.215 -13.3093 815.817 -16.8753 818.6L-16.7094 821.254Z" fill="url(#paint9_radial_1_27)" fill-opacity="0.3" style="mix-blend-mode:screen"/>
<path d="M-16.7097 883.964C-9.48411 876.255 -1.45494 869.248 7.25747 863.047C20.9654 853.137 35.822 844.719 51.5431 837.956C69.0773 830.24 87.666 824.855 106.776 821.956C137.852 817.105 169.505 816.448 200.779 820.005C218.221 822.003 235.303 826.176 251.575 832.414C277.325 842.56 299.966 858.404 321.818 873.779C334.261 882.783 347.233 891.121 360.672 898.753C384.266 911.514 404.46 914.363 428.261 908.002C440.433 905.007 451.822 899.695 461.724 892.393C493.114 868.667 504.932 821.137 512.976 773.334C515.464 758.271 518.284 743.13 521.269 728.301C535.036 663.133 555.811 606.589 582.971 560.19C589.688 548.835 596.862 537.713 604.989 526.162C623.483 499.783 647.367 471.53 684.065 463.726C706.622 458.809 730.714 462.828 753.976 466.652C771.929 470.31 790.261 472.064 808.629 471.881C831.407 470.454 853.523 464.069 873.232 453.228C895.002 441.873 915.445 426.381 935.183 411.435C951.512 398.586 968.67 386.7 986.559 375.846C1016.75 358.403 1043.57 351.535 1071.07 354.344C1098.56 357.154 1123.81 370.266 1148.11 382.987C1171.21 395.045 1195.05 407.494 1221.21 411.396C1251.57 415.844 1281.84 407.494 1304.81 399.923C1316.63 396.021 1328.11 392.119 1339.23 387.982C1352.79 383.221 1366.84 378.265 1381.65 373.427C1403.54 366.285 1429.66 359.456 1457.65 362.773C1471.18 364.783 1484.48 367.917 1497.42 372.139C1502.69 373.661 1508.16 375.3 1513.47 376.704C1529.56 380.997 1548.59 384.509 1567.87 378.89C1592.75 371.475 1608.05 351.925 1622.94 333.038L1627.08 328.043C1632.81 320.58 1639.04 313.476 1645.74 306.775C1683.06 270.445 1742.61 263.85 1785.77 264.435C1834.5 265.255 1882.02 277.976 1927.96 290.269L1930.08 290.854L1937 292.727L1937 290.464L1930.7 288.747L1928.62 288.2C1882.51 275.83 1834.83 263.07 1785.82 262.25L1779.8 262.25C1736.8 262.25 1680.28 270.055 1644.08 305.175C1637.31 311.939 1631.01 319.109 1625.22 326.638L1621.07 331.672C1606.43 350.286 1591.26 369.563 1567.17 376.743C1548.46 382.285 1529.85 378.734 1514.09 374.519C1508.82 373.114 1503.39 371.514 1498.12 369.954C1485.05 365.704 1471.61 362.557 1457.94 360.549C1429.5 357.154 1403.04 364.061 1380.9 371.28C1366.06 376.158 1351.87 381.114 1338.4 385.875C1327.28 389.777 1315.84 393.679 1304.02 397.582C1281.3 405.386 1251.4 413.191 1221.59 408.976C1195.84 405.074 1172.16 392.743 1149.27 380.802C1124.72 368.002 1099.51 354.734 1071.32 351.925C1043.12 349.115 1015.96 355.827 985.357 373.739C967.427 384.705 950.228 396.695 933.856 409.64C914.201 424.547 893.841 440 872.237 451.238C852.83 461.912 831.057 468.203 808.629 469.618C790.757 470.477 772.346 467.394 754.516 464.467C731.004 460.565 706.705 456.662 683.65 461.54C646.331 469.657 621.949 498.105 603.165 524.835C594.872 536.542 587.822 547.625 581.063 559.02C553.779 605.613 532.963 662.391 519.155 727.755C516.003 742.623 513.184 757.803 510.861 772.865C502.693 820.708 491.082 867.535 460.273 890.949C450.612 898.047 439.505 903.2 427.639 906.09C404.501 912.216 384.846 909.485 361.833 897.036C348.45 889.377 335.547 880.999 323.187 871.945C301.21 856.335 278.486 840.726 252.446 830.307C236.03 824.021 218.792 819.835 201.194 817.859C169.715 814.268 137.854 814.911 106.569 819.771C87.2351 822.73 68.4267 828.179 50.6725 835.965C34.8065 842.819 19.8001 851.314 5.93056 861.291C-2.1948 867.146 -9.74436 873.676 -16.6268 880.803L-16.7097 883.964Z" fill="url(#paint10_radial_1_27)" fill-opacity="0.3" style="mix-blend-mode:screen"/>
<path d="M-16.7097 1040.72C-11.139 1059.15 -4.21118 1077.2 4.02344 1094.73L6.55273 1094.73C-3.16772 1074.47 -11.0065 1053.47 -16.8756 1031.94L-16.7097 1040.72Z" fill="url(#paint11_radial_1_27)" fill-opacity="0.3" style="mix-blend-mode:screen"/>
<path d="M-16.7097 953.386C-14.714 947.434 -12.1894 941.651 -9.16283 936.098C21.3561 880.686 94.502 863.984 160.847 852.667C213.592 843.692 260.366 837.8 301.832 857.077C325.882 868.355 347.113 888.022 367.597 907.065C402.47 939.415 435.394 969.97 479.555 959.317C535.326 945.932 545.9 880.53 551.54 820.317C559.715 733.983 585.122 649.875 626.427 572.404C641.479 544.308 663.29 510.67 698.744 499.861C721.177 492.993 744.357 496.31 768.656 499.861C785.395 502.93 802.446 504.239 819.493 503.763C864.649 500.68 902.881 472.74 939.744 445.736C982.661 414.518 1023.21 384.86 1073.18 391.104C1098.85 394.343 1121.86 407.415 1144.13 420.059C1166.4 432.702 1190.49 446.399 1217.07 449.443C1257.54 454.087 1295.19 434.302 1331.64 415.142C1368.96 395.631 1407.77 375.065 1448.74 382.324C1462.26 385.242 1475.41 389.506 1487.97 395.045C1510.03 403.825 1532.83 412.918 1555.8 406.479C1581.18 399.377 1595.07 376.821 1608.51 354.969C1613.85 345.865 1619.76 337.069 1626.21 328.628C1653.66 294.171 1703.8 273.996 1760.4 274.425C1811.57 274.894 1860.79 290.386 1908.39 305.331C1917.76 308.297 1927.34 311.458 1936.92 314.931L1936.92 312.629C1927.59 309.234 1918.22 306.151 1909.14 303.263C1861.32 288.278 1811.94 272.747 1760.4 272.045L1758.24 272.045C1701.85 272.045 1651.92 292.571 1624.35 327.106C1617.87 335.638 1611.92 344.511 1606.52 353.681C1592.67 376.119 1579.65 397.348 1555.14 404.216C1532.96 410.42 1511.56 401.874 1488.79 392.821C1476.02 387.278 1462.66 383.001 1448.95 380.06C1407.15 372.685 1368.09 393.25 1330.27 413.113C1294.19 432.117 1256.83 451.706 1217.15 447.18C1191.07 444.175 1167.72 430.907 1145.12 418.108C1122.53 405.308 1099.51 392.158 1073.31 388.841C1022.34 382.324 979.551 413.581 938.127 443.785C901.43 470.594 863.488 498.417 818.995 501.344C802.127 501.796 785.258 500.487 768.697 497.441C745.061 494.046 720.679 490.534 697.707 497.441C661.424 508.485 639.282 542.591 624.022 571.078C582.628 648.89 557.22 733.359 549.135 820.044C543.62 879.515 533.17 944.098 478.643 957.132C435.684 967.434 403.216 937.308 368.799 905.426C348.066 886.266 326.836 866.403 302.454 855.048C257.297 833.858 201.194 843.341 160.184 850.482C93.4654 861.877 19.6559 878.735 -11.3192 935.045C-13.3992 938.842 -15.2405 942.751 -16.834 946.752L-16.7097 953.386Z" fill="url(#paint12_radial_1_27)" fill-opacity="0.3" style="mix-blend-mode:screen"/>
<path d="M39.1034 1094.73L41.5498 1094.73C36.8219 1082.54 33.2285 1070 30.8102 1057.23C24.2586 1018.79 29.7321 989.482 48.599 962.205C54.6747 953.669 61.6185 945.71 69.3322 938.44C104.454 904.529 151.518 880.647 209.114 867.535C251.243 857.896 299.883 850.521 341.556 868.784C364.528 878.891 384.971 896.841 404.709 914.207C438.172 943.591 469.769 971.375 511.484 962.088C564.021 950.381 576.502 890.949 584.09 836.317C591.471 785.448 604.636 735.472 623.359 687.249C634.047 659.382 646.509 632.147 660.678 605.691C674.942 579.038 695.509 547.157 728.475 536.269C749.996 529.206 773.383 532.172 793.991 534.825L796.811 535.177C811.877 537.56 827.152 538.566 842.423 538.181C885.631 535.645 922.453 510.865 958.072 486.554C971.88 477.188 986.186 467.511 1000.53 459.238C1032.01 441.404 1057.71 434.692 1083.88 437.424C1107.93 439.961 1129.49 451.082 1150.23 461.852C1171.75 472.935 1194.01 484.447 1218.85 486.359C1231.44 487.207 1244.09 485.884 1256.17 482.457C1279.85 476.174 1302.86 463.296 1325.13 450.848C1359.71 431.571 1395.62 411.591 1433.35 416.82C1445.82 419.124 1458 422.655 1469.68 427.356C1482.24 432.422 1495.43 435.95 1508.95 437.853C1517.07 438.768 1525.31 438.063 1533.12 435.785C1556.8 428.722 1570.44 408.04 1583.42 388.021C1588.78 379.459 1594.66 371.198 1601.04 363.281C1629.03 330.306 1677.76 312.121 1728.18 315.79C1746.11 317.567 1763.72 321.502 1780.59 327.497C1807.51 336.746 1833.82 347.496 1859.38 359.69C1883.7 370.34 1906.9 383.132 1928.67 397.894C1931.44 399.884 1934.1 401.796 1936.71 403.903L1936.71 401.055C1934.55 399.416 1932.31 397.777 1930.03 396.138C1908.17 381.268 1884.85 368.409 1860.37 357.739C1834.7 345.485 1808.27 334.707 1781.21 325.467C1764.17 319.447 1746.37 315.512 1728.26 313.76C1723.91 313.448 1719.55 313.292 1715.24 313.292C1668.76 313.292 1625.13 331.399 1599.14 362.071C1592.71 370.064 1586.78 378.403 1581.39 387.046C1568.49 406.557 1555.22 427.083 1532.33 433.873C1524.82 436.048 1516.92 436.726 1509.11 435.863C1495.81 433.941 1482.81 430.453 1470.43 425.483C1458.56 420.723 1446.19 417.165 1433.52 414.869C1394.79 409.562 1358.88 429.698 1323.8 449.17C1301.66 461.54 1278.77 474.34 1255.38 480.388C1243.59 483.689 1231.25 484.932 1218.98 484.057C1194.64 482.183 1172.58 470.828 1151.26 459.823C1129.95 448.819 1108.43 437.697 1083.96 435.161C1057.22 432.351 1031.05 439.063 999.123 457.248C984.693 465.404 970.346 475.12 956.496 484.564C921.167 508.524 884.594 533.499 842.092 535.84C826.957 536.24 811.818 535.233 796.894 532.835L794.074 532.484C773.341 529.83 749.54 526.826 727.521 534.045C693.768 545.088 672.828 577.516 658.398 604.559C644.222 631.146 631.76 658.512 621.078 686.508C602.319 734.975 589.154 785.2 581.81 836.317C574.304 890.246 562.072 948.742 511.069 960.059C470.349 968.995 439.374 941.679 406.367 912.529C386.505 895.046 365.938 876.979 342.634 866.716C300.298 848.18 251.16 855.633 208.658 865.35C150.605 878.618 103.085 902.695 67.6735 936.918C59.955 944.297 53.0119 952.36 46.9406 960.995C27.7833 988.779 22.0608 1018.55 28.8198 1057.58C31.095 1070.22 34.5359 1082.65 39.1034 1094.73Z" fill="url(#paint13_radial_1_27)" fill-opacity="0.3" style="mix-blend-mode:screen"/>
<path d="M76.7131 1094.73L79.0767 1094.73C77.6434 1088.17 76.7286 1081.51 76.34 1074.82C74.5569 1040.29 83.306 1015.24 106.444 988.35C113.517 980.385 121.033 972.778 128.96 965.561C167.772 929.191 204.262 897.817 257.505 882.286C307.264 867.847 348.979 867.223 381.612 880.413C403.465 889.349 423.078 905.621 442.152 921.309C474.206 947.766 504.351 972.741 543.661 964.78C596.945 954.088 608.804 893.056 616.683 852.667C626.378 805.979 640.506 760.204 658.895 715.892C669.393 689.729 681.296 664.084 694.556 639.056C708.861 612.247 727.728 583.409 757.874 572.717C776.866 566.005 796.894 567.449 819.244 569.868L824.634 570.453C838.003 572.305 851.514 573.088 865.022 572.795C906.488 570.766 941.859 548.757 976.193 527.489C988.881 519.684 1001.98 511.49 1015.17 504.505C1035.57 493.734 1062.94 481.637 1093.96 484.135C1116.31 485.93 1136.38 495.139 1155.82 503.997C1176.1 513.285 1197.29 522.884 1220.26 523.509C1231.92 523.83 1243.55 522.192 1254.59 518.67C1276.41 511.997 1297.6 499.158 1318.08 487.139C1349.8 468.213 1382.56 448.624 1417.6 452.019C1429.14 453.485 1440.48 456.102 1451.43 459.823C1463.18 463.826 1475.41 466.447 1487.84 467.628C1495.47 468.153 1503.13 467.265 1510.4 465.013C1532.33 458.067 1545.48 439.219 1558.21 421.035C1563.56 412.979 1569.44 405.238 1575.79 397.855C1604.07 366.637 1651.22 350.754 1696.04 357.076C1713.5 359.534 1727.64 366.519 1741.32 373.27L1743.44 374.324C1766.7 386.279 1789.17 399.572 1810.69 414.127C1831.49 427.28 1851.08 442.057 1869.24 458.301C1899.39 486.125 1916.43 515.587 1921.33 548.366C1924.15 567.683 1922.82 587.663 1916.97 613.184C1914.44 624.149 1911.46 634.958 1908.68 645.417C1906.81 652.285 1904.99 658.762 1903.41 664.928C1901.3 673.201 1899.27 681.318 1897.94 689.122C1896.82 694.898 1896.07 700.439 1895.29 706.565L1895.29 707.112C1894.11 714.065 1893.8 721.125 1894.37 728.145C1895.97 740.343 1900.66 752 1908.05 762.133C1915.44 772.266 1925.31 780.578 1936.83 786.367L1936.83 783.87C1925.9 778.218 1916.55 770.212 1909.54 760.506C1902.53 750.801 1898.05 739.672 1896.49 728.028C1895.93 721.189 1896.23 714.312 1897.4 707.541L1897.4 707.034C1898.19 700.946 1898.93 695.327 1900.05 689.708C1901.55 681.903 1903.37 673.864 1905.49 665.63C1907.1 659.348 1908.89 652.909 1910.75 646.119C1913.65 635.661 1916.64 624.812 1919.05 613.769C1924.93 588.014 1926.3 567.8 1923.19 548.249C1918.26 514.963 1901.01 485.071 1870.45 456.897C1852.34 440.524 1832.79 425.617 1812.02 412.332C1790.41 397.798 1767.88 384.518 1744.56 372.568L1742.44 371.514C1728.59 364.685 1714.29 357.622 1696.46 355.125C1689.88 354.19 1683.24 353.72 1676.59 353.72C1657.27 353.629 1638.15 357.409 1620.49 364.81C1602.84 372.212 1587.07 383.064 1574.21 396.645C1567.81 404.119 1561.87 411.937 1556.43 420.059C1543.99 437.97 1531.01 456.467 1509.82 463.179C1502.84 465.353 1495.46 466.202 1488.13 465.677C1475.89 464.475 1463.86 461.853 1452.3 457.872C1441.2 454.143 1429.7 451.527 1418.01 450.068C1382.35 446.829 1349.22 466.574 1317.17 485.696C1296.81 497.832 1275.7 510.397 1254.18 516.914C1243.4 520.339 1232.05 521.938 1220.68 521.636C1197.99 520.855 1178.13 511.802 1157.15 502.124C1137.54 493.149 1117.26 483.861 1094.45 482.066C1062.73 479.53 1034.87 491.744 1014.18 502.709C1000.95 509.695 987.803 517.85 975.073 525.733C940.988 546.884 905.783 568.658 865.064 570.687C851.681 570.972 838.296 570.202 825.049 568.385L819.659 567.761C797.018 565.341 776.7 563.858 757.211 570.765C726.153 581.692 707.161 610.959 692.648 638.119C679.366 663.196 667.45 688.894 656.946 715.111C638.491 759.546 624.322 805.453 614.61 852.277C604.741 903.007 591.14 953.073 543.412 962.673C505.264 970.478 475.491 945.737 443.894 919.748C424.737 904.139 404.957 887.593 382.732 878.501C349.559 865.077 307.264 865.701 257.007 880.296C203.101 895.905 166.404 927.513 127.343 964.078C119.385 971.371 111.828 979.043 104.703 987.062C81.1499 1014.38 72.2761 1039.9 74.0592 1075.02C74.4445 1081.64 75.3315 1088.23 76.7131 1094.73Z" fill="url(#paint14_radial_1_27)" fill-opacity="0.3" style="mix-blend-mode:screen"/>
<path d="M121.662 1094.73C121.662 1093.95 121.662 1093.2 121.662 1092.42C124.067 1058.16 138.456 1038.61 164.165 1014.38C168.311 1010.48 172.914 1006.57 177.641 1002.24C181.207 999.081 184.856 995.882 188.547 992.526C200.365 981.755 210.731 970.946 220.766 960.488C246.682 933.679 268.991 910.46 306.144 897.114C330.692 888.334 378.378 876.042 421.917 892.12C442.65 899.924 461.807 914.48 480.177 928.606C510.654 952.02 539.473 974.146 576.088 967.629C625.474 958.849 639.406 906.909 649.565 869.018C661.489 826.597 676.593 785.024 694.763 744.613C706.954 716.36 717.818 693.454 728.973 672.498C742.408 647.211 759.906 619.934 787.813 609.32C805.892 602.374 825.132 603.35 845.036 605.067L853.329 605.808C864.923 607.168 876.603 607.767 888.285 607.603C927.926 606.081 962.301 586.96 995.516 568.58C1006.88 562.22 1018.65 555.664 1030.47 549.927C1051.2 539.742 1076.54 529.518 1105.11 530.962C1125.84 532.055 1144.3 539.274 1162.21 546.298C1182.2 554.103 1201.06 561.478 1222.67 561.088C1233.41 560.826 1244.03 558.819 1254.06 555.156C1274.17 548.132 1293.53 535.645 1312.11 523.587C1340.84 505.09 1370.58 485.93 1402.38 487.139C1412.96 487.905 1423.42 489.71 1433.6 492.525C1444.49 495.569 1455.72 497.389 1467.07 497.949C1474.2 498.08 1481.3 497.023 1488.05 494.827C1508.12 487.998 1520.81 471.14 1533.08 454.828C1538.54 447.208 1544.51 439.922 1550.95 433.015C1579.19 404.138 1624.64 390.441 1664.03 398.909C1680.24 402.421 1691.73 410.85 1702.8 419.005L1706.45 421.659C1725.95 436.257 1744.48 451.975 1761.93 468.721C1779.03 484.352 1794.99 501.053 1809.7 518.709C1834.58 549.498 1849.05 580.56 1853.45 613.886C1855.77 635.998 1855 658.301 1851.17 680.225C1850.38 685.376 1849.59 690.488 1848.8 695.522C1846.73 708.829 1844.66 721.394 1843.87 732.789C1843.26 740.332 1843.12 747.903 1843.45 755.461C1843.45 759.364 1843.99 763.071 1844.32 766.349C1844.32 767.519 1844.32 768.651 1844.66 769.744C1844.99 770.836 1844.66 771.773 1844.66 772.748C1844.81 776.986 1845.56 781.185 1846.89 785.236C1851.81 797.194 1859.45 807.994 1869.28 816.873C1879.11 825.752 1890.89 832.496 1903.79 836.629C1910.86 838.974 1918.3 840.187 1925.8 840.219C1929.44 840.215 1933.07 839.954 1936.67 839.439L1936.67 837.253C1925.83 838.907 1914.73 837.995 1904.37 834.6C1891.89 830.511 1880.51 823.904 1871.02 815.243C1861.54 806.581 1854.18 796.073 1849.47 784.455C1848.19 780.584 1847.48 776.566 1847.35 772.514L1847.1 769.51C1847.1 768.378 1847.1 767.246 1846.77 766.036C1846.44 762.798 1846.11 759.129 1845.9 755.305C1845.58 747.824 1845.73 740.331 1846.36 732.867C1847.02 721.589 1849.18 709.024 1851.17 695.834C1851.95 690.8 1852.78 685.649 1853.53 680.498C1857.35 658.362 1858.08 635.849 1855.69 613.535C1851.25 579.975 1836.78 548.562 1811.44 517.46C1796.66 499.658 1780.61 482.814 1763.42 467.043C1745.91 450.236 1727.32 434.466 1707.73 419.825L1704.13 417.171C1692.81 408.859 1681.11 400.274 1664.4 396.684C1656.42 394.976 1648.25 394.125 1640.06 394.148C1623.01 394.245 1606.16 397.599 1590.53 404.005C1574.9 410.41 1560.82 419.735 1549.13 431.415C1542.61 438.398 1536.58 445.762 1531.05 453.463C1518.98 469.501 1506.54 486.047 1487.14 492.486C1480.67 494.64 1473.84 495.658 1466.98 495.49C1455.82 494.934 1444.77 493.126 1434.06 490.105C1423.71 487.266 1413.08 485.449 1402.34 484.681C1369.79 483.471 1339.72 502.827 1310.66 521.519C1292.04 533.499 1272.76 545.908 1252.94 552.737C1243.15 556.312 1232.79 558.266 1222.29 558.512C1201.15 558.903 1182.53 551.605 1162.75 543.879C1144.67 536.816 1125.93 529.518 1104.9 528.27C1075.88 526.787 1050.33 537.128 1029.19 547.43C1017.33 553.205 1005.51 559.8 994.106 566.161C960.933 584.502 927.055 603.506 887.995 604.989C876.424 605.144 864.856 604.558 853.37 603.233L845.077 602.491C824.966 600.735 805.353 599.76 786.776 606.901C758.165 617.749 740.376 645.455 726.733 671.094C715.538 692.088 704.673 715.072 692.483 743.364C674.279 783.869 659.134 825.532 647.16 868.042C637.126 905.387 623.442 956.546 575.507 965.092C539.929 971.492 511.525 949.678 481.504 926.577C462.969 912.333 443.811 897.622 422.581 889.739C378.336 873.388 329.987 885.837 305.149 894.734C267.498 908.197 243.904 932.781 218.941 958.81C208.948 969.268 198.623 980.038 186.847 990.77C183.198 994.126 179.549 997.325 175.983 1000.49C171.255 1004.62 166.777 1008.56 162.465 1012.62C136.507 1037.44 122.035 1057.34 119.423 1092.31C119.423 1093.09 119.423 1093.91 119.423 1094.73L121.662 1094.73Z" fill="url(#paint15_radial_1_27)" fill-opacity="0.3" style="mix-blend-mode:screen"/>
<path d="M171.504 1094.73C180.046 1072.44 196.384 1060 219.314 1042.71L225.12 1038.34C232.708 1032.6 240.545 1026.63 248.299 1019.8C263.923 1005.23 277.826 989.112 289.765 971.726C307.305 947.805 323.891 925.211 354.701 911.943C391.108 896.334 430.252 893.368 462.139 903.865C482.084 910.421 500.454 923.377 518.201 935.903C545.859 955.415 574.429 975.629 608.472 970.361C654.292 963.375 669.884 920.021 682.448 885.173C695.261 849.506 712.428 812.435 730.59 773.178C740.873 751.013 751.323 728.145 763.348 705.785C775.788 682.059 792.374 656.382 817.668 645.729C833.301 639.212 849.597 638.744 870.828 640.07L881.94 640.89C891.681 641.808 901.467 642.238 911.257 642.178C949.571 641.202 983.117 624.851 1015.5 609.047C1025.25 604.286 1035.36 599.369 1045.44 594.921C1065.63 585.984 1089.77 576.853 1115.56 577.4C1134.39 577.751 1151.34 583.019 1167.72 588.17C1186.55 594.062 1204.38 599.604 1224.37 598.043C1234.22 597.205 1243.86 594.845 1252.89 591.058C1271.14 583.643 1288.72 571.351 1305.72 559.488C1331.6 541.42 1358.34 522.728 1387.08 521.87C1396.7 521.893 1406.29 522.861 1415.69 524.758C1425.71 526.807 1435.95 527.802 1446.21 527.723C1452.81 527.524 1459.34 526.312 1465.53 524.133C1483.74 517.499 1495.93 502.553 1507.7 488.115C1513.31 480.96 1519.39 474.144 1525.91 467.706C1554.02 441.404 1597.6 430.127 1631.94 440.39C1647.73 445.034 1657.1 455.258 1666.19 465.091C1667.26 466.262 1668.3 467.433 1669.38 468.564C1685.17 485.896 1699.8 504.142 1713.17 523.197C1728.47 544.425 1739.91 561.751 1750.28 579.39C1770.47 613.808 1781.75 645.729 1785.69 679.367C1787.81 701.995 1787.81 724.755 1785.69 747.384C1783.94 764.987 1783.65 782.692 1784.82 800.338C1785.5 807.567 1787.05 814.701 1789.42 821.605C1790.84 825.46 1792.54 829.216 1794.52 832.844L1795.31 834.327C1796.68 837.109 1798.39 839.729 1800.41 842.131C1810.57 854.15 1832.34 875.34 1864.31 884.042C1870.4 885.712 1876.71 886.566 1883.05 886.578C1895.62 885.955 1908 883.479 1919.75 879.242L1925.93 877.408L1936.83 874.247L1936.83 871.984C1933.02 873.037 1929.2 874.169 1925.27 875.34L1919.05 877.174C1900.22 882.793 1885.33 887.242 1864.93 881.779C1833.58 873.584 1812.23 852.589 1802.28 840.804C1800.29 838.52 1798.61 836.017 1797.26 833.351L1796.47 831.868C1794.57 828.268 1792.96 824.537 1791.66 820.708C1789.34 813.968 1787.82 807.005 1787.14 799.947C1785.98 782.315 1786.26 764.625 1787.97 747.032C1790.09 724.273 1790.09 701.384 1787.97 678.625C1783.82 644.519 1772.63 612.52 1752.23 577.829C1741.86 560.151 1730.38 542.708 1714.91 521.441C1701.48 502.386 1686.8 484.139 1670.95 466.808L1667.76 463.374C1658.93 453.736 1648.89 442.848 1632.47 437.97C1623.63 435.381 1614.41 434.066 1605.15 434.068C1574.8 434.423 1545.77 445.804 1524.12 465.833C1517.53 472.324 1511.38 479.206 1505.71 486.437C1494.14 500.641 1482.16 515.314 1464.5 521.558C1458.55 523.691 1452.28 524.891 1445.92 525.109C1435.83 525.156 1425.76 524.174 1415.9 522.182C1406.35 520.276 1396.63 519.295 1386.87 519.255C1357.39 520.114 1330.35 539.04 1304.23 557.303C1287.31 569.01 1269.85 581.302 1251.86 588.521C1243.04 592.198 1233.64 594.504 1224.03 595.35C1204.5 596.872 1186.92 591.448 1168.35 585.555C1151.76 580.365 1134.68 575.019 1115.48 574.668C1089.1 574.2 1064.76 583.37 1044.36 592.384C1034.2 596.872 1024.09 601.789 1014.34 606.55C980.671 622.978 948.866 638.509 911.049 639.446C901.357 639.505 891.667 639.075 882.023 638.158L870.828 637.378C853.951 636.324 834.42 635.778 816.632 643.192C790.508 654.119 773.922 680.186 761.15 704.263C749.249 726.662 738.634 749.608 728.35 771.773C710.147 811.069 692.98 848.18 680.126 883.925C667.686 918.226 652.426 960.878 607.975 967.629C574.802 972.741 547.974 953.737 519.445 933.601C501.573 920.997 483.038 907.924 462.803 901.251C430.335 890.559 390.569 893.446 353.623 909.446C322.233 922.909 305.481 945.776 287.733 969.931C275.951 987.198 262.199 1003.2 246.723 1017.66C239.011 1024.52 231.215 1030.38 223.668 1036.08L217.863 1040.48C195.264 1057.58 177.932 1070.73 169.099 1094.18L171.504 1094.73Z" fill="url(#paint16_radial_1_27)" fill-opacity="0.3" style="mix-blend-mode:screen"/>
<path d="M234.864 1094.73C243.861 1087.78 253.491 1081.59 263.642 1076.23C268.825 1073.26 274.215 1070.22 279.606 1066.83C289.593 1060.96 299.027 1054.3 307.803 1046.92C328.287 1029.21 339.317 1008.41 349.974 988.389C362.911 964 375.102 940.976 402.884 926.811C433.901 911.202 470.93 906.831 502.029 915.611C521.021 920.997 538.81 932.313 555.935 943.279C582.308 959.863 609.26 977.033 640.36 973.131C683.028 967.941 700.734 931.143 714.999 901.446C722.877 885.095 731.792 868.159 741.205 850.209C749.498 834.6 757.791 818.991 766.085 801.82C769.429 795.082 772.788 788.266 776.161 781.372C782.961 767.48 789.969 753.12 797.35 739.111C809.79 715.697 824.303 692.751 847.109 682.215C862.783 675.035 879.908 674.41 896.122 675.191C900.932 675.191 905.783 675.659 910.51 675.932C918.182 676.401 926.06 676.908 933.856 676.83C971.673 676.44 1003.52 663.289 1037.27 649.514C1044.74 646.47 1052.41 643.27 1060.12 640.265C1079.36 632.734 1101.92 624.656 1125.84 624.188C1141.65 624.367 1157.36 626.492 1172.58 630.51C1190.41 634.412 1207.24 638.314 1225.86 635.427C1234.79 633.991 1243.44 631.266 1251.49 627.349C1268.07 619.544 1283.7 607.408 1298.92 595.701C1321.89 578.063 1345.65 559.8 1371.32 556.951C1380.08 556.258 1388.89 556.402 1397.61 557.381C1406.7 558.379 1415.86 558.536 1424.98 557.849C1431.06 557.241 1437.02 555.822 1442.68 553.634C1458.98 547.157 1470.59 534.123 1481.83 521.675C1487.6 514.923 1493.84 508.547 1500.53 502.592C1528.68 478.749 1569.4 470.203 1599.55 481.832C1615.27 487.881 1622.98 500.563 1629.78 511.763L1632.02 515.47C1644.14 535.43 1654.87 556.118 1664.11 577.4C1673.86 599.018 1682.48 619.388 1690.49 639.602C1704.33 673.332 1713.44 708.622 1717.56 744.574C1719.59 764.515 1719.68 784.143 1719.76 803.108C1719.76 807.011 1719.76 810.523 1719.76 814.191C1719.76 831.985 1720.67 852.277 1725.4 868.121C1727.37 875.233 1730.67 881.959 1735.14 887.983C1737.6 891.302 1740.74 894.116 1744.39 896.256C1745.92 897.02 1747.55 897.585 1749.24 897.934C1750.75 898.269 1752.22 898.726 1753.64 899.3C1758.17 901.416 1762.55 903.815 1766.74 906.48C1780.01 914.285 1799.91 926.421 1824.54 931.611C1829.65 932.743 1834.89 933.319 1840.14 933.328C1853.11 933.328 1864.27 929.699 1876.63 925.523C1880.15 924.392 1883.8 923.182 1887.61 922.05C1903.45 916.893 1919.87 913.513 1936.54 911.982L1936.54 909.797C1919.59 911.312 1902.88 914.731 1886.78 919.982C1882.93 921.114 1879.28 922.323 1875.75 923.455C1859.17 928.879 1844.7 933.562 1824.92 929.348C1801.41 924.197 1781.42 912.334 1768.23 904.49C1763.95 901.748 1759.46 899.296 1754.8 897.154C1753.27 896.529 1751.69 896.033 1750.07 895.671C1748.62 895.369 1747.22 894.869 1745.93 894.188C1742.57 892.143 1739.68 889.49 1737.42 886.383C1733.1 880.678 1729.89 874.297 1727.93 867.535C1723.28 851.926 1722.5 831.829 1722.33 814.191C1722.33 810.523 1722.33 806.815 1722.33 803.108C1722.33 784.065 1722.33 764.398 1720.13 744.34C1715.96 708.254 1706.8 672.835 1692.89 638.978C1684.89 618.725 1676.3 598.316 1666.48 576.541C1657.18 555.173 1646.42 534.395 1634.26 514.338C1633.51 513.168 1632.76 511.919 1632.02 510.67C1625.05 499.197 1617.13 486.164 1600.67 479.803C1591.11 476.234 1580.9 474.445 1570.61 474.535C1544.23 474.857 1518.86 484.159 1499.2 500.719C1492.41 506.803 1486.08 513.323 1480.25 520.231C1469.22 532.562 1457.78 545.323 1441.98 551.449C1436.53 553.513 1430.79 554.827 1424.94 555.352C1415.97 556.051 1406.96 555.907 1398.03 554.922C1389.15 553.92 1380.19 553.776 1371.28 554.493C1344.91 557.381 1320.9 575.839 1297.68 593.516C1282.54 605.223 1266.87 617.164 1250.66 624.734C1242.83 628.511 1234.44 631.143 1225.78 632.539C1207.66 635.27 1190.99 631.563 1173.4 627.661C1157.95 623.758 1142.01 621.751 1126.01 621.691C1101.67 622.159 1078.9 630.354 1059.46 637.963C1051.7 640.968 1043.99 644.129 1036.57 647.212C1003.02 661.065 971.383 674.137 934.063 674.528C926.392 674.528 918.472 674.137 910.842 673.63C906.115 673.357 901.222 673.045 896.412 672.889C879.826 672.303 862.41 672.889 846.321 680.147C822.768 690.956 807.924 714.37 795.401 738.057C787.978 752.066 780.929 766.427 774.129 780.319C770.77 787.226 767.453 794.055 764.094 800.767C755.801 817.742 747.259 833.702 739.215 849.116C729.802 867.067 720.887 884.042 712.925 900.588C698.951 929.66 681.535 965.795 640.36 970.829C609.924 974.731 584.464 958.459 557.428 941.327C540.095 930.245 522.14 918.85 502.817 913.348C471.137 904.412 433.445 908.665 401.931 924.743C373.485 939.259 361.128 962.556 348.025 987.179C337.451 1007.08 326.504 1027.65 306.559 1045.13C297.86 1052.36 288.524 1058.89 278.652 1064.64C273.096 1068.04 267.747 1071.08 262.563 1074.01C251.499 1079.78 241.092 1086.61 231.505 1094.38L234.864 1094.73Z" fill="url(#paint17_radial_1_27)" fill-opacity="0.3" style="mix-blend-mode:screen"/>
<path d="M333.512 1094.73L337.369 1092.93C348.221 1087.88 358.339 1081.53 367.473 1074.04C390.113 1054.85 398.904 1030.53 407.363 1007.04C416.859 981.365 425.608 957.288 451.524 941.679C478.609 925.837 511.242 920.691 542.335 927.357C560.538 931.533 577.871 941.288 594.623 950.771C619.047 964.468 644.382 978.633 672.828 976.058C712.138 972.585 730.88 943.747 747.467 918.304L747.757 917.914L756.963 903.826C771.019 882.481 786.943 858.287 801.912 830.619C807.51 820.317 813.025 809.391 818.498 798.816C822.852 790.231 827.33 781.333 831.892 772.631C843.378 750.856 856.771 729.277 877.504 718.858C892.349 711.326 908.521 710.351 922.412 710.429C928.383 710.429 934.478 710.741 940.408 711.053C946.338 711.365 951.355 711.443 957.036 711.443C996.263 711.677 1029.93 700.439 1065.43 688.498L1075.3 685.22C1093.92 678.976 1115.02 671.952 1136.62 670.547C1150.2 669.987 1163.8 670.706 1177.22 672.694C1194.35 674.684 1210.39 676.596 1227.93 672.342C1235.93 670.324 1243.59 667.236 1250.66 663.172C1265.74 653.896 1279.82 643.258 1292.7 631.407C1312.77 614.198 1333.55 596.287 1356.19 591.604C1364.14 590.16 1372.22 589.441 1380.32 589.458C1388.34 589.441 1396.34 588.802 1404.25 587.545C1409.8 586.528 1415.2 584.891 1420.34 582.668C1434.6 576.502 1445.5 565.576 1456.04 554.961C1462.1 548.539 1468.66 542.54 1475.65 537.011C1503.64 516.016 1541.46 510.241 1567.66 522.923C1583.46 530.728 1589.06 545.518 1593.95 558.668L1595.2 561.985C1603.57 584.676 1610.39 607.852 1615.6 631.368C1618.58 643.973 1621.49 656.928 1624.55 670.391C1626.71 679.874 1628.7 689.63 1631.23 699.658C1640.03 735.873 1646.28 772.596 1649.93 809.586C1651.09 822.698 1651.76 835.731 1652.42 848.375C1653 859.614 1653.54 870.228 1654.41 880.881C1656.28 905.622 1660.42 922.948 1666.56 935.591C1669.9 942.743 1675.02 949.034 1681.49 953.932C1685.22 956.872 1689.82 958.646 1694.67 959.005L1694.92 959.005C1697.15 958.898 1699.34 958.367 1701.35 957.444C1703.28 956.575 1705.36 956.046 1707.49 955.883C1713.75 955.571 1723.45 959.239 1735.72 963.961C1751.69 970.613 1768.37 975.624 1785.48 978.907C1805.51 982.185 1819.32 977.268 1835.24 971.531C1839.89 969.853 1844.7 968.136 1849.88 966.575C1869.1 959.952 1889.53 957.019 1909.96 957.951C1919 957.951 1928 957.951 1936.88 957.483L1936.88 955.298C1928.06 955.818 1919.1 955.974 1910.01 955.766C1889.3 954.868 1868.61 957.838 1849.13 964.507C1843.91 966.107 1839.06 967.824 1834.37 969.502C1818.7 975.082 1805.14 979.921 1785.77 976.799C1768.86 973.554 1752.37 968.582 1736.6 961.971C1724.16 957.171 1714.12 953.386 1707.36 953.737C1704.96 953.939 1702.62 954.533 1700.44 955.493C1698.68 956.289 1696.78 956.753 1694.84 956.859C1690.43 956.567 1686.23 954.953 1682.86 952.254C1676.74 947.533 1671.89 941.515 1668.72 934.694C1662.54 922.284 1658.76 905.153 1656.77 880.842C1655.94 870.189 1655.41 859.614 1654.82 848.375C1654.16 835.731 1653.46 822.659 1652.34 809.352C1648.65 772.317 1642.34 735.555 1633.47 699.307C1631.15 689.278 1628.95 679.562 1626.79 670.04C1623.77 656.616 1620.82 643.699 1617.88 631.017C1612.65 607.408 1605.81 584.142 1597.39 561.361L1596.15 558.044C1591.09 544.503 1585.33 529.167 1568.7 521.089C1558.67 516.405 1547.6 514.037 1536.4 514.182C1513.73 514.549 1491.83 522.034 1474.2 535.45C1467.13 541.044 1460.49 547.108 1454.34 553.596C1443.97 564.015 1433.23 574.824 1419.34 580.912C1414.38 583.012 1409.18 584.545 1403.83 585.477C1396.04 586.717 1388.14 587.356 1380.24 587.389C1371.98 587.35 1363.75 588.082 1355.65 589.575C1332.43 594.492 1311.45 612.481 1291.17 629.885C1278.37 641.63 1264.4 652.189 1249.45 661.416C1242.57 665.341 1235.13 668.336 1227.35 670.313C1210.35 674.489 1194.39 672.576 1177.59 670.586C1164.05 668.595 1150.32 667.876 1136.62 668.44C1114.69 669.884 1093.42 676.986 1074.67 683.23L1064.81 686.547C1029.85 698.254 996.802 709.375 958.404 709.375L957.16 709.375C951.562 709.375 945.799 709.024 940.201 708.751C934.603 708.478 928.176 708.165 922.121 708.126C907.94 708.126 891.395 709.063 876.094 716.828C855.071 727.56 841.387 749.452 829.735 771.461C825.174 780.202 820.654 789.099 816.342 797.684C810.993 808.22 805.519 819.147 799.756 829.449C784.828 857.038 768.946 881.193 754.931 902.5L745.684 916.548L745.435 916.977C729.139 941.991 710.728 970.322 672.538 973.678C644.797 976.214 619.876 962.244 595.784 948.703C578.866 939.22 561.368 929.386 542.832 925.289C511.13 918.496 477.86 923.74 450.239 939.884C423.618 955.844 414.744 980.428 405.373 1006.46C397.079 1029.87 388.289 1053.71 366.063 1072.52C357.113 1079.92 347.157 1086.17 336.456 1091.1C333.719 1092.46 330.983 1093.67 328.163 1095L333.512 1094.73Z" fill="url(#paint18_radial_1_27)" fill-opacity="0.3" style="mix-blend-mode:screen"/>
<path d="M434.233 1094.73C452.975 1075.22 458.449 1050.71 463.715 1026.83C469.727 999.511 475.45 973.678 499.997 956.585C511.798 948.674 525.149 943.044 539.278 940.023C553.407 937.002 568.033 936.65 582.307 938.986C599.93 941.991 617.014 950.147 633.559 958.068C656.117 968.8 679.504 979.999 704.881 978.672C741.62 976.838 762.104 954.088 780.183 934.03C801.885 910.944 821.057 885.855 837.406 859.145C844.538 847.048 851.297 833.936 857.807 821.254C860.461 816.103 863.073 810.952 865.769 805.645C875.679 786.797 887.829 765.802 906.696 754.915C917.643 748.671 930.207 745.627 947.457 745.081C954.92 744.847 962.426 745.081 969.682 745.51L979.8 745.901C1018.78 746.876 1052.12 740.32 1090.1 730.291L1100.26 727.521C1115.56 722.862 1131.22 719.365 1147.12 717.063C1158.01 715.948 1168.96 715.466 1179.91 715.619C1196.92 715.619 1213.09 715.619 1229.67 709.414C1236.71 706.82 1243.35 703.383 1249.45 699.19C1262.65 689.565 1274.93 678.871 1286.15 667.23C1303.36 650.45 1321.11 633.124 1340.68 626.412C1348 624.088 1355.54 622.415 1363.19 621.417C1369.95 620.506 1376.64 619.203 1383.22 617.515C1388.19 616.198 1393.03 614.447 1397.65 612.286C1409.35 605.971 1420.01 598.084 1429.29 588.872C1435.84 582.672 1442.89 576.97 1450.4 571.819C1472.95 557.186 1509.2 548.405 1535.4 564.366C1551.41 573.965 1554.73 591.253 1557.67 606.511L1558.08 608.852C1562.68 634.282 1565.59 659.957 1566.79 685.727L1567.7 699.736C1568.82 719.053 1569.94 738.994 1571.85 759.988C1572.97 772.631 1574.21 785.86 1575.54 799.557C1577.82 823.556 1580.19 848.414 1582.18 874.91L1583.17 888.764C1584.54 909.407 1585.78 928.801 1588.77 947.922C1592.46 972.624 1598.56 990.848 1607.43 1003.22C1612.33 1010.46 1619.28 1016.27 1627.5 1020C1631.17 1021.59 1635.15 1022.45 1639.19 1022.53C1641.12 1022.55 1643.04 1022.27 1644.87 1021.71C1647.92 1020.62 1650.73 1019.03 1653.17 1016.99C1655.45 1015.12 1658.04 1013.61 1660.84 1012.51C1670.33 1009.11 1685.72 1013.05 1703.84 1017.62C1717.62 1021.42 1731.67 1024.33 1745.88 1026.32C1765.75 1028.7 1779.6 1023.24 1794.23 1017.46C1799.79 1015.28 1805.47 1013.05 1811.81 1011.06C1831.46 1004.11 1852.64 1001.87 1873.43 1004.54C1894.53 1006.61 1915.82 1006.27 1936.83 1003.53L1936.83 1001.34C1915.9 1004.08 1894.7 1004.43 1873.68 1002.4C1852.55 999.648 1831.03 1001.92 1811.07 1008.99C1804.68 1010.98 1798.92 1013.25 1793.36 1015.47C1778.39 1021.36 1765.46 1026.44 1746.17 1024.13C1732.07 1022.18 1718.13 1019.3 1704.46 1015.51C1686.05 1010.83 1670.21 1006.81 1660.01 1010.44C1656.99 1011.64 1654.2 1013.27 1651.71 1015.28C1649.5 1017.17 1646.94 1018.68 1644.17 1019.72C1638.89 1021.01 1633.3 1020.42 1628.45 1018.09C1620.63 1014.53 1614.02 1008.99 1609.38 1002.09C1600.71 989.872 1594.7 972.078 1591.05 947.727C1588.23 928.645 1586.9 909.29 1585.41 888.842L1584.42 874.989C1582.38 848.453 1580.02 823.634 1577.74 799.596C1576.45 785.899 1575.17 772.709 1574.09 760.066C1572.27 739.072 1571.1 719.131 1569.94 699.854L1569.2 685.766C1567.98 659.904 1565.06 634.139 1560.45 608.618L1559.99 606.276C1557.13 591.331 1553.61 572.795 1536.73 562.649C1526.55 556.756 1514.8 553.736 1502.85 553.947C1483.58 554.289 1464.84 559.932 1448.95 570.18C1441.36 575.399 1434.22 581.166 1427.59 587.428C1418.47 596.439 1407.99 604.143 1396.49 610.296C1391.99 612.396 1387.3 614.107 1382.48 615.408C1375.97 617.059 1369.36 618.362 1362.7 619.31C1354.9 620.32 1347.22 622.018 1339.77 624.383C1319.7 631.29 1301.74 648.812 1284.37 665.747C1273.23 677.27 1261.07 687.871 1248 697.434C1242.15 701.564 1235.75 704.961 1228.97 707.541C1212.67 713.434 1196.83 713.512 1180.08 713.59C1169 713.434 1157.92 713.917 1146.91 715.033C1130.89 717.37 1115.1 720.906 1099.68 725.609L1089.56 728.379C1051.78 738.486 1018.65 745.003 979.966 743.988C976.607 743.988 973.248 743.754 969.89 743.598C962.55 743.286 955.003 742.935 947.498 743.169C929.792 743.754 916.896 747.071 905.576 753.315C886.17 764.436 873.855 785.743 863.778 804.864C861.083 810.015 858.471 815.166 855.817 820.473C849.307 833.156 842.589 846.229 835.457 858.287C819.174 884.859 800.101 909.829 778.524 932.821C760.735 952.566 740.583 974.887 704.839 976.682C679.96 977.892 656.946 966.927 634.72 956.312C618.134 948.313 600.76 940.079 582.805 937.035C568.206 934.596 553.236 934.917 538.77 937.979C524.304 941.041 510.63 946.782 498.546 954.868C473.252 972.624 467.488 998.808 461.227 1026.59C455.878 1050.75 450.363 1075.68 430.832 1094.92L434.233 1094.73Z" fill="url(#paint19_radial_1_27)" fill-opacity="0.3" style="mix-blend-mode:screen"/>
<path d="M510.406 1094.73C515.267 1079.28 518.231 1063.36 519.238 1047.27C522.306 1018.05 525.167 990.457 548.264 971.219C558.511 963.256 570.37 957.334 583.122 953.812C595.873 950.291 609.252 949.243 622.447 950.732C639.779 952.41 657.071 959.083 673.781 965.561C694.017 973.365 715.247 981.56 737.058 981.443C772.014 981.443 795.567 963.415 812.734 950.225C836.532 932.866 856.934 911.738 873.025 887.788C881.319 875.106 888.741 860.862 895.873 847.087L900.02 839.282C909.557 821.02 920.255 802.328 936.468 791.753C947.385 784.931 960.074 781.045 973.166 780.514C982.257 780.038 991.372 780.129 1000.45 780.787L1002.77 780.787C1033.95 782.348 1067.96 782.777 1105.07 775.558C1113.36 773.919 1121.66 771.89 1129.95 769.939C1139.07 767.714 1148.53 765.412 1157.81 763.734C1165.28 762.368 1172.33 761.393 1179.13 760.417C1198.2 757.725 1214.7 755.422 1231.62 746.603C1237.66 743.43 1243.31 739.634 1248.46 735.286C1259.75 725.285 1270.23 714.497 1279.81 703.014C1294.11 686.781 1308.83 669.962 1325.42 661.299C1332.47 657.847 1339.83 654.963 1347.4 652.675C1352.21 651.075 1357.18 649.436 1362.41 647.368C1366.76 645.665 1371.01 643.737 1375.14 641.592C1384.47 636.301 1393.27 630.214 1401.43 623.408C1408.88 617.222 1416.87 611.635 1425.31 606.706C1447.37 594.999 1481.16 589.536 1503.35 605.886C1519.52 617.827 1520.39 637.69 1521.18 655.25L1521.18 655.875C1522.02 684.015 1521.03 712.178 1518.19 740.203L1517.28 750.154C1515.29 772.748 1513.14 796.123 1512.26 820.395C1510.85 857.116 1511.48 897.427 1514.17 940.274C1515.29 965.269 1518.26 990.161 1523.05 1014.77C1528.6 1040.17 1536.81 1058.44 1548.46 1070.77C1554.94 1078.09 1563.61 1083.42 1573.34 1086.06C1576.28 1086.78 1579.31 1087.15 1582.34 1087.16C1586.57 1087.23 1590.76 1086.33 1594.53 1084.54C1598.41 1082.41 1601.9 1079.69 1604.86 1076.5C1607.57 1073.65 1610.67 1071.15 1614.06 1069.05C1626.92 1061.71 1647.24 1065.15 1671.08 1069.05C1682.52 1070.92 1694.34 1072.95 1706.41 1073.81C1726.31 1075.33 1739.58 1069.56 1753.85 1063.43C1760.33 1060.49 1766.97 1057.89 1773.75 1055.63C1799.08 1047.39 1812.31 1047.31 1836.98 1051.18C1874.97 1057.07 1908.39 1055.59 1936.83 1046.77L1936.83 1044.5C1908.6 1053.4 1875.3 1054.85 1837.36 1049.03C1813.39 1045.13 1799.17 1045.13 1773 1053.48C1766.15 1055.76 1759.42 1058.36 1752.85 1061.28C1738.38 1067.64 1725.86 1073.03 1706.57 1071.55C1694.63 1070.45 1682.86 1068.7 1671.49 1066.83C1647.36 1062.92 1626.46 1059.41 1612.86 1067.22C1609.35 1069.42 1606.16 1072.05 1603.37 1075.02C1600.6 1078.11 1597.3 1080.75 1593.62 1082.82C1587.49 1085.5 1580.53 1085.98 1574.05 1084.15C1564.66 1081.58 1556.32 1076.41 1550.08 1069.32C1538.84 1057.3 1530.76 1039.35 1525.2 1014.46C1520.41 989.967 1517.44 965.192 1516.33 940.313C1513.67 897.388 1513.05 857.272 1514.46 820.63C1515.37 796.318 1517.45 772.983 1519.48 750.388L1520.35 740.437C1523.29 712.327 1524.37 684.072 1523.58 655.836L1523.58 655.172C1522.84 638.08 1521.93 616.774 1504.88 604.208C1494.5 596.905 1481.8 593.123 1468.85 593.477C1453.14 593.654 1437.73 597.575 1424.07 604.872C1415.55 609.821 1407.51 615.448 1400.02 621.691C1391.96 628.391 1383.29 634.399 1374.1 639.641C1370.06 641.719 1365.91 643.594 1361.66 645.26C1356.52 647.29 1351.58 649.163 1346.77 650.529C1339.08 652.862 1331.62 655.813 1324.47 659.348C1307.55 668.167 1292.62 685.142 1278.19 701.571C1268.68 712.956 1258.28 723.664 1247.09 733.608C1242.02 737.85 1236.45 741.541 1230.5 744.613C1213.92 753.237 1197.66 755.539 1178.8 758.193C1171.95 759.168 1164.86 760.144 1157.36 761.51C1147.99 763.227 1138.53 765.412 1129.37 767.753C1121.28 769.705 1112.78 771.656 1104.7 773.334C1067.83 780.514 1034.2 780.085 1002.98 778.524L1000.7 778.524C991.496 777.866 982.257 777.775 973.041 778.251C959.549 778.833 946.485 782.881 935.266 789.957C918.679 800.806 907.732 819.81 897.946 838.307L893.8 846.112C886.668 859.809 879.328 874.013 871.076 886.617C855.136 910.407 834.9 931.391 811.282 948.625C789.347 965.288 768.614 979.102 737.058 979.219L736.727 979.219C715.247 979.219 694.597 971.219 674.528 963.61C657.651 957.093 640.235 950.381 622.571 948.625C609.055 947.117 595.355 948.203 582.299 951.818C569.242 955.433 557.099 961.502 546.605 969.658C522.638 989.443 519.57 1018.79 516.625 1047.12C514.925 1063.31 513.225 1079.82 507.627 1094.8L510.406 1094.73Z" fill="url(#paint20_radial_1_27)" fill-opacity="0.3" style="mix-blend-mode:screen"/>
<path d="M1910.5 1094.73C1919.88 1091.12 1928.73 1086.4 1936.83 1080.68L1936.83 1077.95C1926.91 1085.17 1915.8 1090.84 1903.95 1094.73L1910.5 1094.73Z" fill="url(#paint21_radial_1_27)" fill-opacity="0.3" style="mix-blend-mode:screen"/>
<path d="M573.807 1094.73C574.429 1085.95 574.512 1076.97 574.595 1068.07C574.802 1038.26 575.009 1007.43 596.945 986.126C612.702 970.751 636.586 962.088 662.876 962.712C680.623 962.985 698.122 968.058 716.781 973.404C733.948 978.399 751.696 983.55 769.609 984.487C800.17 986.126 824.22 977.034 845.658 966.927C871.095 955.693 892.967 938.393 909.101 916.743C918.246 903.509 926.34 889.657 933.317 875.301L934.602 872.842C943.766 855.243 953.054 838.619 966.614 828.395C975.975 821.375 987.264 817.004 999.165 815.791C1008.09 814.874 1017.1 814.874 1026.03 815.791C1035.41 816.532 1044.61 817.586 1053.49 818.6C1075.75 820.708 1097.23 823.283 1120.2 820.708C1135.26 818.66 1150.12 815.515 1164.66 811.303L1168.51 810.288C1195.67 803.225 1214.87 797.528 1233.61 783.714C1238.64 779.97 1243.3 775.818 1247.55 771.305C1256.89 760.967 1265.54 750.098 1273.46 738.759C1284.87 723.15 1296.68 706.761 1310.16 696.302C1317.96 690.528 1326.29 685.41 1335.04 681.005L1341.55 677.415L1343.54 676.323C1346.44 674.723 1349.51 673.045 1352.66 671.211C1358.72 667.582 1364.6 663.406 1370.33 659.504C1379.61 652.604 1389.63 646.628 1400.22 641.67C1422.16 632.383 1452.68 630.549 1471.25 647.446C1486.27 661.104 1486.02 681.513 1484.32 702.975C1481.42 733.781 1476.53 764.393 1469.68 794.64L1467.61 804.396C1462.34 829.098 1456.91 854.619 1452.97 880.92C1446.67 922.263 1444.49 964.069 1446.46 1005.79C1447.28 1031.46 1451.01 1056.97 1457.57 1081.89C1458.86 1086.45 1460.27 1090.71 1461.72 1094.8L1464.21 1094.8C1462.63 1090.51 1461.14 1086.1 1459.81 1081.34C1453.3 1056.57 1449.59 1031.22 1448.74 1005.72C1446.82 964.147 1449 922.501 1455.25 881.31C1459.19 855.048 1464.62 829.566 1469.89 804.903L1471.96 795.148C1478.85 764.772 1483.76 734.03 1486.68 703.092C1488.09 685.454 1490 661.338 1472.95 645.846C1462.37 636.785 1448.44 631.981 1434.14 632.461C1422.14 632.557 1410.29 635.002 1399.35 639.641C1388.62 644.674 1378.46 650.728 1369.04 657.709C1363.36 661.611 1357.47 665.708 1351.5 669.416C1348.39 671.289 1345.36 672.928 1342.46 674.528L1340.47 675.62L1333.96 679.171C1325.11 683.703 1316.68 688.924 1308.75 694.781C1294.98 705.434 1283.08 721.823 1271.43 737.706C1263.6 748.955 1255.02 759.734 1245.76 769.978C1241.63 774.399 1237.07 778.461 1232.16 782.114C1213.75 795.694 1194.84 801.313 1167.85 808.298L1163.99 809.352C1149.56 813.512 1134.81 816.629 1119.87 818.678C1097.19 821.176 1076 818.678 1053.53 816.22C1044.61 815.205 1035.36 814.152 1025.95 813.41C1016.86 812.454 1007.68 812.454 998.584 813.41C986.284 814.699 974.617 819.215 964.914 826.444C950.981 836.98 941.527 853.76 932.28 871.633L930.995 874.13C924.059 888.376 916.02 902.123 906.944 915.26C891.036 936.573 869.498 953.614 844.455 964.702C823.308 974.653 799.631 983.667 769.816 982.028C752.152 981.131 734.529 976.019 717.486 971.063C699.656 965.873 681.204 960.527 663.083 960.254C636.462 959.824 611.665 968.683 595.452 984.487C572.895 1006.53 572.687 1037.83 572.48 1068.07C572.48 1076.97 572.48 1085.95 571.692 1094.73L573.807 1094.73Z" fill="url(#paint22_radial_1_27)" fill-opacity="0.3" style="mix-blend-mode:screen"/>
<path d="M1756.62 1094.73C1765.67 1093.3 1774.9 1093.3 1783.95 1094.73L1796.64 1094.73C1776.53 1090.67 1764.09 1089.97 1746.09 1094.73L1756.62 1094.73Z" fill="url(#paint23_radial_1_27)" fill-opacity="0.3" style="mix-blend-mode:screen"/>
<path d="M627.92 1094.73L630.242 1094.73C630.242 1092.81 629.952 1090.82 629.827 1088.99C627.422 1057.3 624.976 1024.56 645.253 1000.8C658.19 985.619 678.674 976.136 702.932 974.107C723.416 972.39 745.476 976.76 766.748 980.975C778.234 983.238 790.052 985.58 801.538 986.945C827.021 990.124 852.91 988.8 877.877 983.043C906.903 976.487 928.59 964.117 944.471 945.269C953.964 932.993 962.053 919.808 968.604 905.934C976.441 890.793 984.527 875.106 996.138 864.686C1003.95 857.517 1013.83 852.66 1024.54 850.716C1032.51 849.342 1040.66 849.197 1048.67 850.287C1060.84 851.951 1072.85 854.455 1084.63 857.779C1100.84 861.955 1117.55 866.247 1134.97 866.052C1150.12 865.569 1165.05 862.516 1179.04 857.038C1200.76 849.488 1220.16 837.008 1235.52 820.708C1239.5 816.472 1243.17 811.987 1246.51 807.284C1253.89 796.865 1260.52 785.119 1266.95 773.763C1274.81 758.668 1284.16 744.297 1294.86 730.838C1302.57 722.065 1311.24 714.086 1320.73 707.034C1323.8 704.692 1327.08 702.429 1330.15 700.322C1344.2 690.761 1359.17 680.81 1375.1 676.284C1395.41 670.196 1422.91 670.235 1439.2 688.654C1453.3 704.575 1451.64 727.404 1447.49 749.725C1440.81 783.272 1431.99 816.41 1421.08 848.96L1418.47 857.194C1409.72 884.51 1400.72 912.607 1393.59 941.249C1382.51 983.712 1377.42 1027.36 1378.45 1071.08C1378.74 1079.23 1379.32 1087.08 1380.15 1094.73L1382.6 1094.73C1381.73 1086.92 1381.15 1079.12 1380.82 1071C1379.74 1027.52 1384.76 984.086 1395.75 941.835C1402.79 913.231 1411.83 885.095 1420.62 857.896L1423.28 849.663C1434.2 817.034 1443.04 783.817 1449.73 750.193C1453.88 727.365 1455.7 703.951 1441.03 687.327C1435.84 681.772 1429.4 677.381 1422.17 674.477C1414.95 671.573 1407.12 670.23 1399.27 670.547C1390.81 670.652 1382.42 671.968 1374.39 674.45C1358.18 679.327 1343 689.161 1328.78 698.839C1325.67 700.946 1322.35 703.249 1319.24 705.629C1309.62 712.763 1300.82 720.834 1292.99 729.706C1282.21 743.29 1272.8 757.791 1264.88 773.022C1258.45 784.299 1251.86 796.006 1244.52 806.347C1241.27 810.981 1237.66 815.389 1233.74 819.537C1218.64 835.488 1199.6 847.685 1178.3 855.048C1164.56 860.327 1149.92 863.235 1135.09 863.633C1118.05 863.633 1101.42 859.731 1085.33 855.438C1073.45 852.13 1061.32 849.651 1049.05 848.024C1040.78 846.904 1032.38 847.062 1024.17 848.492C1013.02 850.521 1002.75 855.566 994.603 863.008C982.703 873.74 974.534 889.583 966.572 904.997C960.102 918.695 952.11 931.71 942.729 943.825C927.18 962.283 905.825 974.419 877.421 980.858C852.769 986.485 827.221 987.755 802.077 984.604C790.674 983.238 778.897 980.897 767.494 978.633C746.015 974.419 723.831 970.009 702.973 971.765C678.094 973.834 657.07 983.472 643.718 999.081C622.985 1023.51 625.349 1056.72 627.754 1088.83C627.92 1091.02 627.92 1092.89 627.92 1094.73Z" fill="url(#paint24_radial_1_27)" fill-opacity="0.3" style="mix-blend-mode:screen"/>
<path d="M1916.18 1094.73C1917.55 1090.04 1918.84 1085.32 1920.33 1080.64C1923.61 1068.93 1926.97 1056.84 1931.03 1045.25C1932.77 1040.37 1934.76 1035.45 1937 1030.53L1937 1025.27C1933.87 1031.56 1931.1 1038.01 1928.71 1044.58C1924.56 1056.29 1921.24 1068.35 1917.97 1080.09C1916.6 1084.97 1915.23 1089.85 1913.82 1094.73L1916.18 1094.73Z" fill="url(#paint25_radial_1_27)" fill-opacity="0.3" style="mix-blend-mode:screen"/>
<path d="M683.318 1094.73C679.628 1066.16 678.384 1037.79 693.851 1015.59C715.952 983.824 763.058 975.121 833.84 989.716C886.419 1000.56 945.466 1009.23 980.215 973.834C990.913 962.985 998.169 948.703 1005.09 934.811C1016.33 912.646 1026.99 891.885 1050.29 885.603C1069.74 880.452 1088.15 888.608 1107.64 897.31C1121.2 903.358 1135.26 909.563 1149.93 911.085C1193.72 915.533 1228.72 877.369 1245.31 843.302C1250.78 832.102 1255.51 820.278 1260.07 808.806C1270.14 783.48 1280.59 757.295 1299.71 736.925C1308.36 728.041 1318.97 721.04 1330.8 716.41C1342.62 711.78 1355.37 709.632 1368.17 710.117C1375.84 710.356 1383.35 712.289 1390.08 715.76C1396.82 719.23 1402.59 724.141 1406.94 730.096C1420.58 749.608 1415.94 775.987 1410.34 796.787C1399.39 837.488 1382.97 877.369 1367.09 915.924C1355.61 943.825 1343.71 972.741 1333.92 1001.77C1323.45 1032 1316.22 1063.14 1312.36 1094.73L1314.68 1094.73C1318.54 1063.36 1325.73 1032.43 1336.12 1002.4C1345.86 973.443 1357.72 944.605 1369.29 916.548C1385.21 877.915 1401.63 837.995 1412.62 797.177C1418.34 775.948 1423.07 749.022 1408.89 728.73C1404.39 722.467 1398.36 717.302 1391.32 713.665C1384.27 710.028 1376.41 708.022 1368.38 707.814C1366.72 707.814 1365.02 707.814 1363.32 707.814C1351.01 708.032 1338.87 710.601 1327.64 715.363C1316.42 720.126 1306.34 726.983 1298.01 735.52C1278.6 756.164 1268.11 782.582 1257.91 808.064C1253.39 819.498 1248.67 831.478 1243.23 842.443C1226.94 875.847 1192.81 913.309 1150.14 908.782C1135.88 907.339 1121.99 900.978 1108.68 895.241C1089.64 886.812 1069.99 878.11 1049.71 883.535C1025.37 889.934 1014.55 911.319 1003.06 933.913C996.096 947.571 988.923 961.698 978.473 972.312C944.554 1006.81 886.253 998.262 834.296 987.531C762.477 972.741 714.584 981.755 691.86 1014.34C676.021 1037.13 677.223 1065.81 680.955 1094.69L683.318 1094.73Z" fill="url(#paint26_radial_1_27)" fill-opacity="0.3" style="mix-blend-mode:screen"/>
<path d="M-16.7097 397.386C65.9319 394.304 128.09 319.145 166.487 254.484L175.485 239.266C216.039 170.273 257.961 98.7829 334.341 75.3691C407.487 52.97 484.282 84.4225 558.589 114.782C637.374 147.015 718.938 180.38 794.945 147.757C829.486 132.967 855.941 106.431 881.526 80.7934C899.273 63.0379 917.601 44.6972 938.5 30.2976C1044.94 -43.0655 1174.86 -2.52057 1263.51 34.2C1272.51 38.1024 1282.34 41.4582 1292.74 45.1655C1318.99 54.4528 1348.68 64.9891 1369.37 82.1202C1381.15 91.8759 1389.19 108.148 1396.95 123.914C1407.85 145.962 1419.09 168.712 1441.03 175.112C1454.73 179.04 1468.99 181 1483.32 180.926C1531.46 180.926 1579.9 160.4 1622.69 138.86L1633.76 133.24C1685.84 106.978 1739.83 79.5837 1797.88 83.1739C1841.13 85.9054 1880.81 105.963 1919.17 125.397C1925.03 128.362 1930.92 131.315 1936.83 134.255L1936.83 129.338C1931.65 126.763 1926.51 124.148 1921.37 121.533C1882.56 102.022 1842.58 81.6519 1798.17 78.8422C1738.79 74.9399 1684.22 102.802 1631.44 129.572L1620.37 135.152C1565.84 162.468 1502.02 188.458 1442.06 171.093C1422.12 165.278 1411.75 144.401 1400.85 122.236C1392.84 106.08 1384.59 89.3784 1372.11 79.0374C1350.8 61.3599 1320.65 50.6677 1294.07 41.2242C1283.7 37.556 1273.96 34.083 1265.04 30.3757C1212.13 8.3277 1144.54 -14.9689 1075.71 -14.9689C1025.37 -15.7678 976.127 -1.10994 935.432 26.7856C914.201 41.4191 895.707 59.9161 877.835 77.8277C852.541 103.154 826.376 129.338 792.706 143.815C718.689 175.619 641.728 144.128 560.248 110.802C485.153 80.0909 407.487 48.3652 332.682 71.2327C254.602 95.1148 210.316 170.507 171.214 237.002C168.228 242.114 165.201 247.226 162.216 252.26C124.482 315.907 63.5683 389.855 -16.9172 392.977L-16.7097 397.386Z" fill="url(#paint27_radial_1_27)" fill-opacity="0.3" style="mix-blend-mode:screen"/>
<path d="M-16.7095 1044.78C-11.2616 1061.79 -4.69739 1078.48 2.94519 1094.73L7.96265 1094.73C-2.57702 1072.97 -10.84 1050.29 -16.7095 1027.02L-16.7095 1044.78Z" fill="url(#paint28_radial_1_27)" fill-opacity="0.3" style="mix-blend-mode:screen"/>
<path d="M-16.7097 957.288C-14.6067 950.149 -11.7306 943.231 -8.12633 936.645C22.1438 881.661 94.9997 865.038 160.93 853.799C213.468 844.824 260.241 838.97 301.002 858.092C324.928 869.291 346.076 888.92 366.519 907.885C401.599 940.43 434.772 971.219 479.596 960.41C536.156 946.83 546.854 881.037 552.493 820.434C560.608 734.256 585.93 650.292 627.132 572.951C642.06 545.049 663.747 511.607 698.785 500.914C720.97 494.163 743.9 497.441 768.158 500.914C784.978 504.006 802.114 505.315 819.244 504.817C864.857 501.734 903.13 473.598 940.283 446.595C982.952 415.376 1023.21 385.992 1072.97 392.275C1098.35 395.513 1121.28 408.547 1143.47 421.113C1166.36 434.107 1190.03 447.57 1216.86 450.653C1257.66 455.336 1295.65 435.434 1332.09 416.196C1371.07 395.709 1407.89 376.353 1448.45 383.533C1461.88 386.431 1474.95 390.67 1487.43 396.177C1509.69 405.035 1532.67 414.205 1556.05 407.65C1581.84 400.391 1595.86 377.641 1609.42 355.632C1614.74 346.446 1620.62 337.56 1627.04 329.018C1654.29 294.834 1704 274.776 1760.27 275.245C1811.28 275.713 1860.41 291.166 1907.93 306.112C1917.43 309.078 1927.13 312.317 1936.96 315.829L1936.96 311.185C1927.75 307.868 1918.51 304.785 1909.51 301.976C1861.66 286.913 1812.19 271.382 1760.23 270.757L1758.07 270.757C1701.31 270.757 1651.05 291.439 1623.27 326.287C1616.74 334.826 1610.75 343.726 1605.36 352.939C1591.63 375.222 1578.69 396.216 1554.64 402.967C1532.87 409.054 1511.64 400.587 1489.17 391.65C1476.36 386.033 1462.96 381.704 1449.19 378.734C1407.02 371.28 1367.76 391.923 1329.77 411.903C1293.82 430.79 1256.67 450.341 1217.32 445.814C1191.48 442.848 1168.26 429.659 1145.79 416.898C1123.31 404.138 1099.84 390.831 1073.47 387.475C1022.05 380.958 979.054 412.293 937.463 442.653C900.89 469.384 863.032 496.973 818.954 499.978C802.176 500.491 785.39 499.248 768.904 496.271C745.144 492.837 720.596 489.286 697.375 496.271C660.72 507.47 638.369 541.811 623.027 570.414C581.493 648.398 556 733.069 547.891 819.966C542.417 879.047 532.051 943.201 478.477 956.078C436.14 966.263 403.838 936.333 369.753 904.646C349.02 885.447 327.665 865.623 303.076 853.916C257.463 832.57 201.235 842.209 160.101 849.233C93.0921 860.667 19.1168 877.642 -12.2314 934.381C-13.8901 937.386 -15.3828 940.43 -16.7097 943.474L-16.7097 957.288Z" fill="url(#paint29_radial_1_27)" fill-opacity="0.3" style="mix-blend-mode:screen"/>
<path d="M684.48 1094.73C680.831 1066.32 679.545 1038.14 694.805 1016.17C716.657 984.955 763.348 976.292 833.591 990.77C886.502 1001.7 945.881 1010.28 981.085 974.575C991.867 963.61 999.165 949.249 1006.21 935.552C1017.37 913.621 1027.86 892.939 1050.67 886.93C1069.7 881.896 1087.98 889.973 1107.22 898.636C1120.91 904.685 1135.05 910.929 1149.89 912.451C1194.34 917.016 1229.72 878.462 1246.51 844.082C1252.02 832.415 1256.75 820.708 1261.31 809.001C1271.35 783.753 1281.76 757.647 1300.75 737.472C1309.27 728.694 1319.72 721.777 1331.39 717.207C1343.05 712.636 1355.63 710.522 1368.25 711.014C1375.75 711.239 1383.08 713.122 1389.66 716.512C1396.24 719.902 1401.87 724.703 1406.11 730.526C1419.55 749.686 1414.94 775.753 1409.39 796.318C1398.44 836.941 1382.06 876.784 1366.18 915.338C1354.69 943.279 1342.79 972.156 1333.01 1001.19C1322.5 1031.53 1315.27 1062.79 1311.4 1094.49L1316.05 1094.49C1319.9 1063.24 1327.07 1032.43 1337.44 1002.52C1347.15 973.561 1359.01 944.723 1370.62 916.86C1386.54 878.227 1403 838.229 1413.99 797.333C1419.75 775.909 1424.52 748.671 1410.13 728.067C1405.52 721.656 1399.36 716.369 1392.15 712.644C1384.94 708.919 1376.89 706.862 1368.67 706.644C1366.97 706.644 1365.27 706.644 1363.57 706.644C1351.06 706.839 1338.73 709.427 1327.33 714.25C1315.92 719.074 1305.68 726.032 1297.22 734.701C1277.69 755.5 1267.12 781.958 1256.92 807.596C1252.4 818.991 1247.67 830.776 1242.28 841.858C1226.11 874.95 1192.52 912.099 1150.35 907.729C1136.25 906.324 1122.48 900.197 1109.13 894.305C1089.93 885.798 1070.07 876.979 1049.38 882.598C1024.5 889.154 1013.1 911.709 1001.98 933.562C995.101 947.142 987.969 961.19 977.644 971.687C944.098 1005.75 886.17 997.247 834.545 986.594C762.228 971.687 713.879 980.858 690.907 1013.91C674.86 1036.97 676.062 1065.81 679.794 1094.84L684.48 1094.73Z" fill="url(#paint30_radial_1_27)" fill-opacity="0.3" style="mix-blend-mode:screen"/>
<path d="M1917.51 1094.73C1918.84 1090.12 1920.12 1085.52 1921.41 1080.95C1924.68 1069.25 1928.04 1057.15 1932.11 1045.6C1933.52 1041.7 1935.18 1037.44 1936.96 1033.34L1936.96 1022.73C1933.39 1029.7 1930.3 1036.89 1927.71 1044.23C1923.57 1055.94 1920.21 1068.07 1916.93 1079.82C1915.56 1084.78 1914.11 1089.77 1912.78 1094.73L1917.51 1094.73Z" fill="url(#paint31_radial_1_27)" fill-opacity="0.3" style="mix-blend-mode:screen"/>
</g>
<defs>
<radialGradient id="paint0_radial_1_27" cx="0" cy="0" r="1" gradientUnits="userSpaceOnUse" gradientTransform="translate(926.639 199.084) rotate(75.2001) scale(701.507 1225.78)">
<stop stop-color="white"/>
<stop offset="1" stop-color="white" stop-opacity="0"/>
</radialGradient>
<radialGradient id="paint1_radial_1_27" cx="0" cy="0" r="1" gradientUnits="userSpaceOnUse" gradientTransform="translate(926.639 199.084) rotate(75.2001) scale(701.507 1225.78)">
<stop stop-color="white"/>
<stop offset="1" stop-color="white" stop-opacity="0"/>
</radialGradient>
<radialGradient id="paint2_radial_1_27" cx="0" cy="0" r="1" gradientUnits="userSpaceOnUse" gradientTransform="translate(926.639 199.084) rotate(75.2001) scale(701.507 1225.78)">
<stop stop-color="white"/>
<stop offset="1" stop-color="white" stop-opacity="0"/>
</radialGradient>
<radialGradient id="paint3_radial_1_27" cx="0" cy="0" r="1" gradientUnits="userSpaceOnUse" gradientTransform="translate(926.639 199.084) rotate(75.2001) scale(701.507 1225.78)">
<stop stop-color="white"/>
<stop offset="1" stop-color="white" stop-opacity="0"/>
</radialGradient>
<radialGradient id="paint4_radial_1_27" cx="0" cy="0" r="1" gradientUnits="userSpaceOnUse" gradientTransform="translate(926.639 199.084) rotate(75.2001) scale(701.507 1225.78)">
<stop stop-color="white"/>
<stop offset="1" stop-color="white" stop-opacity="0"/>
</radialGradient>
<radialGradient id="paint5_radial_1_27" cx="0" cy="0" r="1" gradientUnits="userSpaceOnUse" gradientTransform="translate(926.639 199.084) rotate(75.2001) scale(701.507 1225.78)">
<stop stop-color="white"/>
<stop offset="1" stop-color="white" stop-opacity="0"/>
</radialGradient>
<radialGradient id="paint6_radial_1_27" cx="0" cy="0" r="1" gradientUnits="userSpaceOnUse" gradientTransform="translate(926.639 199.084) rotate(75.2001) scale(701.507 1225.78)">
<stop stop-color="white"/>
<stop offset="1" stop-color="white" stop-opacity="0"/>
</radialGradient>
<radialGradient id="paint7_radial_1_27" cx="0" cy="0" r="1" gradientUnits="userSpaceOnUse" gradientTransform="translate(926.639 199.084) rotate(75.2001) scale(701.507 1225.78)">
<stop stop-color="white"/>
<stop offset="1" stop-color="white" stop-opacity="0"/>
</radialGradient>
<radialGradient id="paint8_radial_1_27" cx="0" cy="0" r="1" gradientUnits="userSpaceOnUse" gradientTransform="translate(926.639 199.084) rotate(75.2001) scale(701.507 1225.78)">
<stop stop-color="white"/>
<stop offset="1" stop-color="white" stop-opacity="0"/>
</radialGradient>
<radialGradient id="paint9_radial_1_27" cx="0" cy="0" r="1" gradientUnits="userSpaceOnUse" gradientTransform="translate(926.639 199.084) rotate(75.2001) scale(701.507 1225.78)">
<stop stop-color="white"/>
<stop offset="1" stop-color="white" stop-opacity="0"/>
</radialGradient>
<radialGradient id="paint10_radial_1_27" cx="0" cy="0" r="1" gradientUnits="userSpaceOnUse" gradientTransform="translate(926.639 199.084) rotate(75.2001) scale(701.507 1225.78)">
<stop stop-color="white"/>
<stop offset="1" stop-color="white" stop-opacity="0"/>
</radialGradient>
<radialGradient id="paint11_radial_1_27" cx="0" cy="0" r="1" gradientUnits="userSpaceOnUse" gradientTransform="translate(926.639 199.084) rotate(75.2001) scale(701.507 1225.78)">
<stop stop-color="white"/>
<stop offset="1" stop-color="white" stop-opacity="0"/>
</radialGradient>
<radialGradient id="paint12_radial_1_27" cx="0" cy="0" r="1" gradientUnits="userSpaceOnUse" gradientTransform="translate(926.639 199.084) rotate(75.2001) scale(701.507 1225.78)">
<stop stop-color="white"/>
<stop offset="1" stop-color="white" stop-opacity="0"/>
</radialGradient>
<radialGradient id="paint13_radial_1_27" cx="0" cy="0" r="1" gradientUnits="userSpaceOnUse" gradientTransform="translate(926.639 199.084) rotate(75.2001) scale(701.507 1225.78)">
<stop stop-color="white"/>
<stop offset="1" stop-color="white" stop-opacity="0"/>
</radialGradient>
<radialGradient id="paint14_radial_1_27" cx="0" cy="0" r="1" gradientUnits="userSpaceOnUse" gradientTransform="translate(926.639 199.084) rotate(75.2001) scale(701.507 1225.78)">
<stop stop-color="white"/>
<stop offset="1" stop-color="white" stop-opacity="0"/>
</radialGradient>
<radialGradient id="paint15_radial_1_27" cx="0" cy="0" r="1" gradientUnits="userSpaceOnUse" gradientTransform="translate(926.639 199.084) rotate(75.2001) scale(701.507 1225.78)">
<stop stop-color="white"/>
<stop offset="1" stop-color="white" stop-opacity="0"/>
</radialGradient>
<radialGradient id="paint16_radial_1_27" cx="0" cy="0" r="1" gradientUnits="userSpaceOnUse" gradientTransform="translate(926.639 199.084) rotate(75.2001) scale(701.507 1225.78)">
<stop stop-color="white"/>
<stop offset="1" stop-color="white" stop-opacity="0"/>
</radialGradient>
<radialGradient id="paint17_radial_1_27" cx="0" cy="0" r="1" gradientUnits="userSpaceOnUse" gradientTransform="translate(926.639 199.084) rotate(75.2001) scale(701.507 1225.78)">
<stop stop-color="white"/>
<stop offset="1" stop-color="white" stop-opacity="0"/>
</radialGradient>
<radialGradient id="paint18_radial_1_27" cx="0" cy="0" r="1" gradientUnits="userSpaceOnUse" gradientTransform="translate(926.639 199.084) rotate(75.2001) scale(701.507 1225.78)">
<stop stop-color="white"/>
<stop offset="1" stop-color="white" stop-opacity="0"/>
</radialGradient>
<radialGradient id="paint19_radial_1_27" cx="0" cy="0" r="1" gradientUnits="userSpaceOnUse" gradientTransform="translate(926.639 199.084) rotate(75.2001) scale(701.507 1225.78)">
<stop stop-color="white"/>
<stop offset="1" stop-color="white" stop-opacity="0"/>
</radialGradient>
<radialGradient id="paint20_radial_1_27" cx="0" cy="0" r="1" gradientUnits="userSpaceOnUse" gradientTransform="translate(926.639 199.084) rotate(75.2001) scale(701.507 1225.78)">
<stop stop-color="white"/>
<stop offset="1" stop-color="white" stop-opacity="0"/>
</radialGradient>
<radialGradient id="paint21_radial_1_27" cx="0" cy="0" r="1" gradientUnits="userSpaceOnUse" gradientTransform="translate(926.639 199.084) rotate(75.2001) scale(701.507 1225.78)">
<stop stop-color="white"/>
<stop offset="1" stop-color="white" stop-opacity="0"/>
</radialGradient>
<radialGradient id="paint22_radial_1_27" cx="0" cy="0" r="1" gradientUnits="userSpaceOnUse" gradientTransform="translate(926.639 199.084) rotate(75.2001) scale(701.507 1225.78)">
<stop stop-color="white"/>
<stop offset="1" stop-color="white" stop-opacity="0"/>
</radialGradient>
<radialGradient id="paint23_radial_1_27" cx="0" cy="0" r="1" gradientUnits="userSpaceOnUse" gradientTransform="translate(926.639 199.084) rotate(75.2001) scale(701.507 1225.78)">
<stop stop-color="white"/>
<stop offset="1" stop-color="white" stop-opacity="0"/>
</radialGradient>
<radialGradient id="paint24_radial_1_27" cx="0" cy="0" r="1" gradientUnits="userSpaceOnUse" gradientTransform="translate(926.639 199.084) rotate(75.2001) scale(701.507 1225.78)">
<stop stop-color="white"/>
<stop offset="1" stop-color="white" stop-opacity="0"/>
</radialGradient>
<radialGradient id="paint25_radial_1_27" cx="0" cy="0" r="1" gradientUnits="userSpaceOnUse" gradientTransform="translate(926.639 199.084) rotate(75.2001) scale(701.507 1225.78)">
<stop stop-color="white"/>
<stop offset="1" stop-color="white" stop-opacity="0"/>
</radialGradient>
<radialGradient id="paint26_radial_1_27" cx="0" cy="0" r="1" gradientUnits="userSpaceOnUse" gradientTransform="translate(926.639 199.084) rotate(75.2001) scale(701.507 1225.78)">
<stop stop-color="white"/>
<stop offset="1" stop-color="white" stop-opacity="0"/>
</radialGradient>
<radialGradient id="paint27_radial_1_27" cx="0" cy="0" r="1" gradientUnits="userSpaceOnUse" gradientTransform="translate(926.639 199.084) rotate(75.2001) scale(701.507 1225.78)">
<stop stop-color="white"/>
<stop offset="1" stop-color="white" stop-opacity="0"/>
</radialGradient>
<radialGradient id="paint28_radial_1_27" cx="0" cy="0" r="1" gradientUnits="userSpaceOnUse" gradientTransform="translate(926.639 199.084) rotate(75.2001) scale(701.507 1225.78)">
<stop stop-color="white"/>
<stop offset="1" stop-color="white" stop-opacity="0"/>
</radialGradient>
<radialGradient id="paint29_radial_1_27" cx="0" cy="0" r="1" gradientUnits="userSpaceOnUse" gradientTransform="translate(926.639 199.084) rotate(75.2001) scale(701.507 1225.78)">
<stop stop-color="white"/>
<stop offset="1" stop-color="white" stop-opacity="0"/>
</radialGradient>
<radialGradient id="paint30_radial_1_27" cx="0" cy="0" r="1" gradientUnits="userSpaceOnUse" gradientTransform="translate(926.639 199.084) rotate(75.2001) scale(701.507 1225.78)">
<stop stop-color="white"/>
<stop offset="1" stop-color="white" stop-opacity="0"/>
</radialGradient>
<radialGradient id="paint31_radial_1_27" cx="0" cy="0" r="1" gradientUnits="userSpaceOnUse" gradientTransform="translate(926.639 199.084) rotate(75.2001) scale(701.507 1225.78)">
<stop stop-color="white"/>
<stop offset="1" stop-color="white" stop-opacity="0"/>
</radialGradient>
</defs>
</svg>
